<svg xmlns="http://www.w3.org/2000/svg" width="100" height="99.055" viewBox="0 0 100 99.055">
  <path id="icon" d="M-1570.789-2271.945a3.01,3.01,0,0,1-3.008-3,3.01,3.01,0,0,1,3.008-3h16.982a3.007,3.007,0,0,1,3,3,3.007,3.007,0,0,1-3,3Zm-1.805-3a1.805,1.805,0,0,0,1.805,1.8h16.982a1.8,1.8,0,0,0,1.8-1.8,1.8,1.8,0,0,0-1.8-1.8h-16.982A1.806,1.806,0,0,0-1572.594-2274.949Zm.817-3.451a2.152,2.152,0,0,1-2.146-2.154v-4.614l-10.58-1.167-54.724,1.254a.718.718,0,0,1-.474-.187.655.655,0,0,1-.2-.47v-6.689a.656.656,0,0,1,.2-.469.726.726,0,0,1,.474-.188l28.657.655v-8.312a41.9,41.9,0,0,1-9.763-2.079,45.78,45.78,0,0,1-8.7-4.662c-2.982-1.871-5.8-3.639-8.384-4.45-.8-.181-1.281-.329-1.3-.337a.656.656,0,0,1-.44-.786.655.655,0,0,1,.759-.484,12.084,12.084,0,0,1,1.314.337c2.747.625,9.646,1.715,14.481-1.629a38.353,38.353,0,0,0,5.778-4.907,17.209,17.209,0,0,1,3.75-3.1c-8.259-1.561-13.566-7.64-15.789-18.1-2.358-11.084-3.981-15.354-8.4-17.24a.656.656,0,0,1-.392-.7.655.655,0,0,1,.584-.552c8.162-.794,18-.071,29.1,11.313,8.044,8.244,16.554,8.983,23.961,2.083,5.06-4.718,9.148-7.81,12.7-7.664a6.016,6.016,0,0,1,4.261,2.213c.592.665,1.209,1.307,1.84,1.917,1.137-3.931,3.717-6.576,6.016-8.933l.069-.071c.523-.536,1.052-1.079,1.567-1.638a.608.608,0,0,1-.16.021.588.588,0,0,1-.277-.069c-.124-.064-3.051-1.616-3.661-4.313s1.367-5.354,1.452-5.467a.6.6,0,0,1,.759-.17c.123.064,3.051,1.62,3.658,4.315a7.048,7.048,0,0,1-1.09,4.922,19.045,19.045,0,0,0,1.641-2.163.659.659,0,0,1,.414-.286.669.669,0,0,1,.493.089l.931.6a.653.653,0,0,1,.286.414.658.658,0,0,1-.091.5,32.592,32.592,0,0,1-4.237,4.993c-2.57,2.633-4.983,5.1-5.743,9.06a22.766,22.766,0,0,0,3.154,2.222.657.657,0,0,1,.317.768.653.653,0,0,1-.687.464,18.715,18.715,0,0,0-3,.05,27.055,27.055,0,0,0,1.494,7.279.661.661,0,0,1-.069.562.659.659,0,0,1-.48.3q-.577.065-1.157.1a.654.654,0,0,1-.657-.454,29.968,29.968,0,0,1-1.515-7.429,17.819,17.819,0,0,0-2.643.757c-3.169,1.194-6.76,3.83-6.39,13.718.191,5.042-.638,21.907-19.331,27.191a45.713,45.713,0,0,1-6.035,1.264v8.8l15.686.361,10.58-1.167v-4.617a2.151,2.151,0,0,1,2.146-2.151h17.166a2.153,2.153,0,0,1,2.15,2.151v17.059a2.155,2.155,0,0,1-2.15,2.154Zm-12.7-9.249a.633.633,0,0,1,.071,0l11.207,1.235a.657.657,0,0,1,.584.654v5.2a.838.838,0,0,0,.835.84h17.166a.839.839,0,0,0,.838-.84v-17.059a.838.838,0,0,0-.838-.837h-17.166a.837.837,0,0,0-.835.837v5.207a.658.658,0,0,1-.584.653l-11.207,1.234a.667.667,0,0,1-.086,0l-16.37-.376a.656.656,0,0,1-.641-.657v-10.016a.657.657,0,0,1,.572-.652,44.731,44.731,0,0,0,6.419-1.3c17.771-5.024,18.558-21.076,18.375-25.877-.312-8.37,1.921-13,7.24-15a19.736,19.736,0,0,1,3.62-.961.663.663,0,0,1,.527.141.8.8,0,0,1,.074.071.658.658,0,0,1,.517-.375c.576-.067,1.108-.109,1.582-.131-.508-.368-1.1-.821-1.744-1.364a.656.656,0,0,1-.227-.608l.024-.145a.612.612,0,0,1-.119.052.65.65,0,0,1-.643-.136,36.22,36.22,0,0,1-2.75-2.772,4.686,4.686,0,0,0-3.343-1.775c-3.261-.139-7.573,3.425-11.742,7.313-7.9,7.357-17.3,6.581-25.793-2.126-9.744-9.993-18.46-11.479-25.865-11.091,3.5,2.482,5.087,7.2,7.188,17.083,2.289,10.769,7.979,16.617,16.915,17.377a.656.656,0,0,1,.595.571.659.659,0,0,1-.431.7,12.986,12.986,0,0,0-5.4,3.756,39.588,39.588,0,0,1-5.958,5.058c-3.351,2.316-7.542,2.695-10.9,2.491,1.467.812,2.955,1.745,4.418,2.663a44.894,44.894,0,0,0,8.435,4.533,40.656,40.656,0,0,0,10.043,2.063.657.657,0,0,1,.6.655v9.589a.66.66,0,0,1-.2.47.629.629,0,0,1-.473.186l-28.657-.654v5.343l54.1-1.239Zm23.99-77.194a5.908,5.908,0,0,0,2.581,3.23,5.9,5.9,0,0,0,.941-4.024,5.9,5.9,0,0,0-2.58-3.232A5.912,5.912,0,0,0-1560.484-2364.843Zm-83.5,81.054a2.2,2.2,0,0,1-2.012-2.338v-4.233a2.194,2.194,0,0,1,2.012-2.337h1.21a2.192,2.192,0,0,1,2.011,2.337v4.233a2.194,2.194,0,0,1-2.011,2.338Zm-.81-6.571v4.233c0,.6.378,1.135.81,1.135h1.21c.43,0,.808-.53.808-1.135v-4.233c0-.615-.37-1.134-.808-1.134h-1.21C-1644.42-2291.494-1644.8-2290.964-1644.8-2290.36Zm41.142-1.111-3.367-.077a.6.6,0,0,1-.588-.6v-8.706a.6.6,0,0,1,.179-.428.618.618,0,0,1,.432-.172c1.067.02,2.182-.012,3.317-.089a.61.61,0,0,1,.452.161.6.6,0,0,1,.191.439v8.872a.6.6,0,0,1-.182.429.6.6,0,0,1-.419.172Zm-2.752-1.266,2.165.05v-7.619c-.73.039-1.451.059-2.153.059h-.013Zm35.619-7.917a3.01,3.01,0,0,1-3.008-3,3.009,3.009,0,0,1,3.008-3h16.982a3.006,3.006,0,0,1,3,3,3.007,3.007,0,0,1-3,3Zm-1.805-3a1.807,1.807,0,0,0,1.805,1.8h16.982a1.8,1.8,0,0,0,1.8-1.8,1.8,1.8,0,0,0-1.8-1.8h-16.982A1.805,1.805,0,0,0-1572.594-2303.658Zm16.688-44.961c-2.524-.3-4.184-2.815-4.253-2.922a.6.6,0,0,1,.1-.771c.1-.087,2.374-2.133,4.885-1.837s4.181,2.817,4.251,2.923a.6.6,0,0,1-.1.771,7.407,7.407,0,0,1-4.377,1.865A4.37,4.37,0,0,1-1555.906-2348.619Zm-2.917-3.144a5.149,5.149,0,0,0,3.057,1.949,5.36,5.36,0,0,0,3.505-1.19,5.137,5.137,0,0,0-3.055-1.952,3.146,3.146,0,0,0-.358-.02A5.757,5.757,0,0,0-1558.823-2351.763Zm-5.512-3.007c-.124-.066-3.051-1.621-3.662-4.314s1.369-5.354,1.453-5.467a.6.6,0,0,1,.758-.17c.124.065,3.048,1.616,3.658,4.311s-1.365,5.355-1.449,5.468a.6.6,0,0,1-.481.24A.614.614,0,0,1-1564.336-2354.77Zm-2.489-4.578a5.921,5.921,0,0,0,2.584,3.23,5.907,5.907,0,0,0,.94-4.027,5.893,5.893,0,0,0-2.579-3.228A5.91,5.91,0,0,0-1566.825-2359.348Zm11.375,1.771a.6.6,0,0,1-.06-.776c.076-.1,1.88-2.571,4.4-2.8s4.672,1.9,4.762,1.992a.6.6,0,0,1,.061.774c-.076.105-1.879,2.572-4.406,2.8-.128.011-.255.017-.38.017A7.021,7.021,0,0,1-1555.45-2357.577Zm4.45-2.373a5.39,5.39,0,0,0-3.187,1.883,5.114,5.114,0,0,0,3.391,1.284,5.379,5.379,0,0,0,3.189-1.883,5.381,5.381,0,0,0-3.118-1.3C-1550.816-2359.963-1550.908-2359.959-1551-2359.95Zm-2.39-3.025a.6.6,0,0,1-.547-.552c-.012-.147-.261-3.627,1.765-5.683s5.465-1.785,5.609-1.772a.6.6,0,0,1,.547.552c.012.147.259,3.629-1.764,5.682a7.335,7.335,0,0,1-5.078,1.792C-1553.162-2362.956-1553.357-2362.973-1553.389-2362.975Zm2.073-5.389a6.383,6.383,0,0,0-1.431,4.2,6.117,6.117,0,0,0,4.112-1.431,6.406,6.406,0,0,0,1.43-4.2A6.122,6.122,0,0,0-1551.317-2368.365Z" transform="translate(1646 2371)" fill="#fff"/>
</svg>
