<svg xmlns="http://www.w3.org/2000/svg" width="100" height="43.882" viewBox="0 0 100 43.882">
  <path id="icon" d="M-651.487-2356.032a2.268,2.268,0,0,1-1.809.914,2.336,2.336,0,0,1-2.293-2.228,1.049,1.049,0,0,1-.012-.151v-6.2c-.011.022-.022.045-.034.068a1.838,1.838,0,0,1-1.555.959,1.79,1.79,0,0,1-.774-.182,1.9,1.9,0,0,1-.918-2.357,17.253,17.253,0,0,1,.683-1.895c-.023,0-.043.007-.065.007h-2.623v9.283a2.656,2.656,0,0,1-2.609,2.695,2.58,2.58,0,0,1-2.176-1.219,2.578,2.578,0,0,1-2.175,1.219,2.654,2.654,0,0,1-2.6-2.695v-9.283h-2.626a.9.9,0,0,1-.723-.371.969.969,0,0,1-.153-.819l1.249-4.693a1.987,1.987,0,0,1-.916.217,2.356,2.356,0,0,1-.685-.107,2.18,2.18,0,0,1-1.334-1.083c0-.006-.005-.014-.009-.021s0,.013-.008.02a2.181,2.181,0,0,1-1.334,1.083,2.346,2.346,0,0,1-.687.108,1.971,1.971,0,0,1-.914-.217l1.247,4.693a.963.963,0,0,1-.153.819.9.9,0,0,1-.722.371h-2.625v9.283a2.654,2.654,0,0,1-2.606,2.695,2.583,2.583,0,0,1-2.177-1.219,2.582,2.582,0,0,1-2.177,1.219,2.655,2.655,0,0,1-2.606-2.695v-9.283h-2.624a.9.9,0,0,1-.723-.371.969.969,0,0,1-.153-.819l1.248-4.693a1.981,1.981,0,0,1-.915.217,2.345,2.345,0,0,1-.684-.107,2.189,2.189,0,0,1-.237-.085l-2.278,4.263a.95.95,0,0,0-.068.254v.85l1.414,5.393a.966.966,0,0,1-.155.818.9.9,0,0,1-.722.368h-.537v3.567a2.289,2.289,0,0,1-2.245,2.324,2.216,2.216,0,0,1-1.741-.856,2.2,2.2,0,0,1-1.734.856,2.284,2.284,0,0,1-2.242-2.208.976.976,0,0,1-.007-.116v-3.567h-.534a.9.9,0,0,1-.721-.368.963.963,0,0,1-.155-.818l1.409-5.365v-.877a.924.924,0,0,0-.069-.249l-2.225-4.17a2.151,2.151,0,0,1-.935.216,2.2,2.2,0,0,1-1.558-.653v15.215a2.878,2.878,0,0,1-2.823,2.924,2.807,2.807,0,0,1-2.463-1.5,2.813,2.813,0,0,1-2.466,1.5,2.877,2.877,0,0,1-2.821-2.924V-2373.3a2.256,2.256,0,0,1-.806.522l-2.953,16.208a1.054,1.054,0,0,1-1.025.883.988.988,0,0,1-.194-.018,1.037,1.037,0,0,1-.67-.454,1.1,1.1,0,0,1-.162-.808l2.936-16.115a2.354,2.354,0,0,1-.931-1.88v-9.871A5.582,5.582,0,0,1-719-2390.5a2.728,2.728,0,0,1,.356-.026h1.713a4.53,4.53,0,0,1-2.3-3.973,4.43,4.43,0,0,1,4.342-4.5,4.432,4.432,0,0,1,4.349,4.5,4.529,4.529,0,0,1-2.307,3.973h1.721a2.611,2.611,0,0,1,.351.027,5.584,5.584,0,0,1,4.975,5.665v8.191a1.877,1.877,0,0,1,1.366.735c0-.062-.009-.123-.009-.187a3.686,3.686,0,0,1,3.616-3.743,3.685,3.685,0,0,1,3.616,3.743c0,.065-.006.127-.009.19a1.856,1.856,0,0,1,1.482-.741c.043,0,.086,0,.128,0l2.557-8.623c.006-.021.013-.04.02-.06.049-.132,1.224-3.243,3.959-3.243h2.063a4.309,4.309,0,0,1-2.777-4.061,4.247,4.247,0,0,1,4.164-4.316,4.246,4.246,0,0,1,4.163,4.316,4.309,4.309,0,0,1-2.775,4.061h2.063c2.737,0,3.908,3.112,3.956,3.245a.6.6,0,0,1,.019.058l2.551,8.6,2.552-8.6a.54.54,0,0,1,.019-.059c.049-.133,1.224-3.244,3.959-3.244h1.609a4.309,4.309,0,0,1-2.777-4.061,4.247,4.247,0,0,1,4.165-4.316,4.245,4.245,0,0,1,4.161,4.316,4.308,4.308,0,0,1-2.775,4.061h2.516c2.738,0,3.91,3.112,3.958,3.244.007.02.014.039.019.059l2.709,9.13.016.065a4.065,4.065,0,0,1-.035-.5,3.687,3.687,0,0,1,3.618-3.744,3.64,3.64,0,0,1,3.452,2.626v-7.154c0-2.957,2.645-5.389,6.155-5.663a3.727,3.727,0,0,1,.435-.028h1.568a4.474,4.474,0,0,1-2.855-3.972c0-2.483,2.414-4.5,5.38-4.5s5.371,2.019,5.371,4.5a4.474,4.474,0,0,1-2.849,3.972h2.682a4.011,4.011,0,0,1,.442.027c3.51.273,6.153,2.705,6.153,5.664v9.869a2.578,2.578,0,0,1-2.77,2.32,3.062,3.062,0,0,1-1.93-.656v15.214a3.249,3.249,0,0,1-3.49,2.923,3.66,3.66,0,0,1-3.055-1.5,3.646,3.646,0,0,1-3.047,1.5,3.25,3.25,0,0,1-3.494-2.923V-2373.3a3.065,3.065,0,0,1-1.927.653,2.578,2.578,0,0,1-2.77-2.32v-.48a3.768,3.768,0,0,1-1.264,1.861l.072,0a3.267,3.267,0,0,1,3.551,2.5c.123.374.937,2.463,1.423,3.711.338.871.443,1.14.482,1.246a2.035,2.035,0,0,1,.1,1.755,1.934,1.934,0,0,1-1.787,1.236,1.859,1.859,0,0,1-.738-.152c-.248-.106-.428-.219-.729-.926v6.721a2.345,2.345,0,0,1-2.3,2.38A2.271,2.271,0,0,1-651.487-2356.032Zm.418-5.986v4.521a1.417,1.417,0,0,0,1.393,1.439,1.418,1.418,0,0,0,1.394-1.439v-11.456c0-.138.029-.179.063-.179.049,0,.109.083.109.083l1.155,3.333a8.128,8.128,0,0,0,.655,1.554.984.984,0,0,0,.393.083,1.033,1.033,0,0,0,.95-.659,1.081,1.081,0,0,0-.111-1.024l.009-.009c-.032-.109-1.724-4.407-1.923-5.011-.612-1.848-1.724-1.833-2.8-1.862-.357-.009-.667-.013-.921-.013-.508,0-.793.013-.793.013s-.224-.01-.682-.01c-.341,0-.812,0-1.416.024-1.412.045-1.859.795-3.415,4.946-.221.6-.975,2.533-.985,2.648l.01,0a.992.992,0,0,0,.4,1.326.908.908,0,0,0,.393.1.972.972,0,0,0,.768-.488l1.473-4.866s.112-.14.187-.14c.039,0,.069.037.069.152v11.456h.007a1.412,1.412,0,0,0,1.39,1.439,1.414,1.414,0,0,0,1.39-1.439v-4.521s-.079-.64.416-.64S-651.069-2362.018-651.069-2362.018Zm-14.6-6.02h.479v10.224a1.726,1.726,0,0,0,1.695,1.754,1.729,1.729,0,0,0,1.7-1.754v-10.224h3.531l-3.8-14.272s-.16-.625.266-.752a.4.4,0,0,1,.116-.018c.331,0,.428.477.428.477l2.181,7.615s.327,1.285,1.349,1.285a1.444,1.444,0,0,0,.428-.068c1.372-.418.887-2.091.887-2.091l-2.706-9.126s-.967-2.637-3.109-2.637h-6.9c-2.141,0-3.11,2.637-3.11,2.637l-2.706,9.126s-.482,1.672.887,2.091a1.444,1.444,0,0,0,.428.068c1.024,0,1.349-1.285,1.349-1.285l2.183-7.615s.1-.477.427-.477a.4.4,0,0,1,.116.018c.425.127.266.752.266.752l-3.8,14.272h3.533v10.224a1.728,1.728,0,0,0,1.7,1.754,1.726,1.726,0,0,0,1.694-1.754v-10.224Zm-19.953,0h.477v10.224a1.725,1.725,0,0,0,1.7,1.754,1.727,1.727,0,0,0,1.7-1.754v-10.224h3.532l-3.8-14.272s-.161-.625.263-.752a.39.39,0,0,1,.116-.018c.33,0,.428.477.428.477l2.18,7.615s.327,1.285,1.35,1.285a1.449,1.449,0,0,0,.428-.068c1.372-.418.887-2.091.887-2.091l-2.707-9.126s-.965-2.637-3.107-2.637h-6.9c-2.141,0-3.111,2.637-3.111,2.637l-2.705,9.126a2.572,2.572,0,0,0-.08.543.971.971,0,0,0-.767-.386.97.97,0,0,0-.836.48l-.012-.005c-.079.07-1.344,2.4-1.761,2.835a1.146,1.146,0,0,1-.8.412.261.261,0,0,1-.036,0h-3.285a.261.261,0,0,1-.036,0,1.142,1.142,0,0,1-.8-.412c-.422-.432-1.683-2.765-1.763-2.835l-.008.005a.986.986,0,0,0-.837-.48.976.976,0,0,0-.8.423v-9.551a4.684,4.684,0,0,0-4.166-4.729,1.757,1.757,0,0,0-.252-.022h-7.514a1.881,1.881,0,0,0-.263.022,4.686,4.686,0,0,0-4.163,4.729v9.871A1.373,1.373,0,0,0-722-2373.61a.129.129,0,0,0-.036.058l-3.054,16.761a.141.141,0,0,0,.108.164l.025,0a.136.136,0,0,0,.132-.115l3.054-16.761a.137.137,0,0,0-.017-.086c.018,0,.036.005.055.005a1.359,1.359,0,0,0,1.332-1.38v-8.478c0-.318.09-.75.651-.75.387,0,.469.427.485.7v25.41a1.948,1.948,0,0,0,1.912,1.984,1.952,1.952,0,0,0,1.916-1.984v-14.644a.535.535,0,0,1,.545-.581h0a.537.537,0,0,1,.552.581v14.644a1.95,1.95,0,0,0,1.914,1.984,1.951,1.951,0,0,0,1.915-1.984v-25.41c.012-.273.1-.7.482-.7.565,0,.65.432.65.75v8.478a1.36,1.36,0,0,0,1.334,1.38,1.327,1.327,0,0,0,1.2-.787c.021.077.04.133.04.133l2.732,5.12a1.867,1.867,0,0,1,.168.677v1l-1.442,5.486h1.442v4.506h0a1.358,1.358,0,0,0,1.336,1.383,1.355,1.355,0,0,0,1.331-1.383v-4.34a1.057,1.057,0,0,1,0-.167h.805a1.057,1.057,0,0,1,0,.167v4.34a1.36,1.36,0,0,0,1.338,1.383,1.36,1.36,0,0,0,1.337-1.383v-4.506h1.445l-1.445-5.513v-.976a1.891,1.891,0,0,1,.166-.677l2.525-4.728s.154-.339.245-.6a1.262,1.262,0,0,0,.812.667,1.435,1.435,0,0,0,.428.068c1.022,0,1.347-1.285,1.347-1.285l2.183-7.615s.1-.477.427-.477a.4.4,0,0,1,.117.018c.426.127.264.752.264.752l-3.8,14.272h3.533v10.224a1.729,1.729,0,0,0,1.7,1.754,1.726,1.726,0,0,0,1.7-1.754v-10.224Zm48.384-5.271c.6,0,.666.42.672.581v14.641a2.207,2.207,0,0,0,2.375,1.984,2.2,2.2,0,0,0,2.367-1.984v-25.405c.018-.272.117-.7.6-.7.694,0,.806.431.806.749v8.476a1.533,1.533,0,0,0,1.65,1.38,1.535,1.535,0,0,0,1.647-1.38v-9.869c0-2.479-2.261-4.511-5.149-4.729a2.886,2.886,0,0,0-.323-.021h-9.3a2.686,2.686,0,0,0-.311.021c-2.893.218-5.155,2.25-5.155,4.729v9.869a1.532,1.532,0,0,0,1.647,1.38,1.535,1.535,0,0,0,1.65-1.38v-8.476c0-.318.106-.749.8-.749.476,0,.581.426.6.7v25.405a2.2,2.2,0,0,0,2.371,1.984,2.2,2.2,0,0,0,2.366-1.984v-14.641c.007-.16.08-.581.685-.581Zm-20.3,4.459c1.206-3.16,1.884-4.447,3.485-4.681a3.759,3.759,0,0,1-1.39-2.135,2.944,2.944,0,0,1-.257,1.712,2.178,2.178,0,0,1-1.333,1.083,2.346,2.346,0,0,1-.687.108,1.985,1.985,0,0,1-.917-.218Zm-46-7.244a2.759,2.759,0,0,0,2.708,2.811,2.759,2.759,0,0,0,2.709-2.811,2.755,2.755,0,0,0-2.709-2.8A2.754,2.754,0,0,0-703.536-2376.094Zm48.892-.47a2.76,2.76,0,0,0,2.71,2.81,2.759,2.759,0,0,0,2.709-2.81,2.754,2.754,0,0,0-2.709-2.8A2.755,2.755,0,0,0-654.645-2376.563Zm-14.736-16.063a3.315,3.315,0,0,0,3.258,3.372,3.311,3.311,0,0,0,3.253-3.372,3.316,3.316,0,0,0-3.253-3.377A3.32,3.32,0,0,0-669.38-2392.627Zm-19.5,0a3.314,3.314,0,0,0,3.256,3.372,3.314,3.314,0,0,0,3.255-3.372,3.319,3.319,0,0,0-3.255-3.377A3.319,3.319,0,0,0-688.882-2392.627Zm-29.444-1.87a3.5,3.5,0,0,0,3.434,3.562,3.5,3.5,0,0,0,3.441-3.562,3.5,3.5,0,0,0-3.441-3.563A3.5,3.5,0,0,0-718.325-2394.5Zm76.269,0c0,1.966,1.906,3.561,4.257,3.561s4.248-1.6,4.248-3.561-1.9-3.562-4.248-3.562S-642.056-2396.466-642.056-2394.5Zm-46.775,11.935v0l0,0Z" transform="translate(726 2399)" fill="#fff"/>
</svg>
