<svg xmlns="http://www.w3.org/2000/svg" width="96.247" height="100" viewBox="0 0 96.247 100">
  <g id="ODS_10" data-name="ODS 10" transform="translate(-36 -22.364)">
    <path id="icon" d="M-1076.891-2281.713a49.5,49.5,0,0,1-17.624-27.221,50.053,50.053,0,0,1,36.442-60.589,49.98,49.98,0,0,1,45.4,11.284l.169.15c.019.017.036.036.053.053a2.264,2.264,0,0,1,.595,1.519,2.228,2.228,0,0,1-.468,1.338.813.813,0,0,1-.076.089l-5.584,5.513a2.182,2.182,0,0,1-2.865.123l-.3-.266a39.381,39.381,0,0,0-35.557-8.731,39.421,39.421,0,0,0-28.7,47.714,39.127,39.127,0,0,0,7.129,14.664,41.353,41.353,0,0,0,22.2,15.722,41.805,41.805,0,0,0,51.768-28.4,41.484,41.484,0,0,0-3.445-31.669,42.85,42.85,0,0,0-3.381-6.013.731.731,0,0,1,.16-.987l.089-.069a.732.732,0,0,1,1.021.127,46.741,46.741,0,0,1,8.711,17.771,47.244,47.244,0,0,1-34.4,57.189A47.4,47.4,0,0,1-1046.5-2271c-.163,0-.326,0-.488,0A47.263,47.263,0,0,1-1076.891-2281.713Zm19.171-86.391a48.589,48.589,0,0,0-35.375,58.816,48.062,48.062,0,0,0,17.12,26.435,45.865,45.865,0,0,0,29.463,10.389,46.055,46.055,0,0,0,10.608-1.352,45.813,45.813,0,0,0,34.69-44.533,43.43,43.43,0,0,1-1.69,10.012,43.3,43.3,0,0,1-41.507,31.122,43.09,43.09,0,0,1-12.074-1.732,42.781,42.781,0,0,1-22.964-16.25,40.552,40.552,0,0,1-7.377-15.186,40.886,40.886,0,0,1,29.767-49.488,40.851,40.851,0,0,1,36.878,9.053l.251.226a.757.757,0,0,0,.955-.06l.125-.125,5.378-5.312a.762.762,0,0,0,.154-.428.825.825,0,0,0-.2-.518l-.121-.106a48.609,48.609,0,0,0-32.391-12.4A48.388,48.388,0,0,0-1057.721-2368.1Zm-5.368,62.34a1.068,1.068,0,0,1-1.084-1.048v-8.414a1.074,1.074,0,0,1,1.084-1.06h34.763a1.078,1.078,0,0,1,1.092,1.06v8.414a1.071,1.071,0,0,1-1.092,1.048Zm.331-1.414h34.109v-7.693h-34.109Zm-.331-14.187a1.071,1.071,0,0,1-1.084-1.053v-8.417a1.067,1.067,0,0,1,1.084-1.046h34.763a1.071,1.071,0,0,1,1.092,1.046v8.417a1.061,1.061,0,0,1-1.092,1.053Zm.331-1.415h34.109v-7.686h-34.109Z" transform="translate(1132 2393.364)" fill="#fff"/>
  </g>
</svg>
