<svg xmlns="http://www.w3.org/2000/svg" width="1020.544" height="1108.121" viewBox="0 0 1020.544 1108.121">
  <g id="HEXÃGONO" transform="translate(779.596) rotate(75)" fill="none" stroke-linejoin="round">
    <path d="M669.329,0a50,50,0,0,1,43.313,25.02l203.9,353.549a50,50,0,0,1,0,49.959l-203.9,353.549a50,50,0,0,1-43.313,25.02H261.621a50,50,0,0,1-43.313-25.02L14.406,428.529a50,50,0,0,1,0-49.959L218.308,25.02A50,50,0,0,1,261.621,0Z" stroke="none"/>
    <path d="M 261.62060546875 2.00006103515625 C 253.2025146484375 2.00006103515625 244.900146484375 4.2257080078125 237.61083984375 8.4364013671875 C 230.321533203125 12.6470947265625 224.2456665039062 18.72723388671875 220.0400390625 26.01947021484375 L 16.13897705078125 379.5682678222656 C 11.9393310546875 386.8502807617188 9.71942138671875 395.1426086425781 9.71942138671875 403.5488586425781 C 9.71942138671875 411.9551086425781 11.9393310546875 420.247314453125 16.13897705078125 427.5293273925781 L 220.0400390625 781.0782470703125 C 224.2456665039062 788.3704833984375 230.321533203125 794.4506225585938 237.6107177734375 798.6613159179688 C 244.9000244140625 802.8720092773438 253.202392578125 805.09765625 261.6204833984375 805.09765625 L 669.3291015625 805.09765625 C 677.7471923828125 805.09765625 686.0496826171875 802.8720092773438 693.3388671875 798.6613159179688 C 700.628173828125 794.4506225585938 706.7040405273438 788.3704833984375 710.90966796875 781.0782470703125 L 914.8107299804688 427.5294494628906 C 919.0103759765625 420.2474365234375 921.2302856445312 411.9551086425781 921.2302856445312 403.5488586425781 C 921.2302856445312 395.1426086425781 919.0103759765625 386.8502807617188 914.8107299804688 379.5682678222656 L 710.90966796875 26.01947021484375 C 706.7040405273438 18.72723388671875 700.628173828125 12.6470947265625 693.3389892578125 8.4364013671875 C 686.0496826171875 4.2257080078125 677.747314453125 2.00006103515625 669.3292236328125 2.00006103515625 L 261.62060546875 2.00006103515625 M 261.62060546875 6.103515625e-05 L 669.3292236328125 6.103515625e-05 C 687.2008666992188 6.103515625e-05 703.7135620117188 9.53875732421875 712.6421508789062 25.020263671875 L 916.543212890625 378.569091796875 C 925.4593505859375 394.0288696289062 925.4593505859375 413.06884765625 916.543212890625 428.5286254882812 L 712.6421508789062 782.0774536132812 C 703.7135620117188 797.5589599609375 687.2008666992188 807.09765625 669.3291015625 807.09765625 L 261.6204833984375 807.09765625 C 243.7488403320312 807.09765625 227.2361450195312 797.5589599609375 218.3075561523438 782.0774536132812 L 14.406494140625 428.5285034179688 C 5.4903564453125 413.06884765625 5.4903564453125 394.0288696289062 14.406494140625 378.569091796875 L 218.3075561523438 25.020263671875 C 227.2361450195312 9.53875732421875 243.7489624023438 6.103515625e-05 261.62060546875 6.103515625e-05 Z" stroke="none" fill="#24dadc"/>
  </g>
</svg>
