<svg xmlns="http://www.w3.org/2000/svg" width="120" height="84.332" viewBox="0 0 120 84.332">
  <path id="icon" d="M-1201.171-2294.672a2.694,2.694,0,0,1-2.509-2.228l-6.029-34.866-8.719,16.057a2.7,2.7,0,0,1-2.856,1.367,2.69,2.69,0,0,1-2.2-2.262l-3.762-26.112-6.549,14.608a2.71,2.71,0,0,1-2.47,1.593h-29.03a2.7,2.7,0,0,1-2.7-2.687,2.7,2.7,0,0,1,2.7-2.683h27.273l9.654-21.529a2.723,2.723,0,0,1,2.842-1.567,2.706,2.706,0,0,1,2.3,2.278l3.929,27.273,8.545-15.732a2.7,2.7,0,0,1,2.819-1.373,2.692,2.692,0,0,1,2.227,2.193l5.41,31.294,20.628-68.041a2.685,2.685,0,0,1,2.377-1.9,2.7,2.7,0,0,1,2.649,1.51l11.273,23.21a2.681,2.681,0,0,1-1.259,3.584,2.719,2.719,0,0,1-3.613-1.253h0l-8.252-16.99-21.936,72.353a2.715,2.715,0,0,1-2.587,1.91C-1201.066-2294.669-1201.118-2294.669-1201.171-2294.672Zm-8.111-39.691a.649.649,0,0,1,.536.53l6.349,36.715a1.4,1.4,0,0,0,1.294,1.155h.086a1.407,1.407,0,0,0,1.34-.989l22.418-73.945a.65.65,0,0,1,.573-.459.654.654,0,0,1,.638.364l8.98,18.488a1.407,1.407,0,0,0,1.872.65,1.388,1.388,0,0,0,.652-1.856l-11.275-23.21a1.4,1.4,0,0,0-1.375-.782,1.391,1.391,0,0,0-1.228.986l-21.425,70.673a.66.66,0,0,1-.664.46.648.648,0,0,1-.6-.536l-5.878-34a1.4,1.4,0,0,0-1.154-1.136,1.4,1.4,0,0,0-1.461.712l-9.482,17.459a.652.652,0,0,1-.688.33.648.648,0,0,1-.531-.545l-4.209-29.215a1.4,1.4,0,0,0-1.193-1.181,1.412,1.412,0,0,0-1.473.813l-9.825,21.911a.654.654,0,0,1-.6.383h-27.7a1.4,1.4,0,0,0-1.4,1.39,1.4,1.4,0,0,0,1.4,1.392h29.03a1.4,1.4,0,0,0,1.279-.825l7.469-16.659a.652.652,0,0,1,.685-.378.649.649,0,0,1,.555.549l4.082,28.335a1.4,1.4,0,0,0,1.141,1.172,1.4,1.4,0,0,0,1.479-.709l9.616-17.706a.652.652,0,0,1,.573-.34A.706.706,0,0,1-1209.281-2334.363Zm45.968,18.719-11.834-11.858a9.285,9.285,0,0,1-2.63-6.518c0-5.257,3.64-9.221,8.468-9.221,2.227,0,4.557,1.957,6.423,3.827,1.867-1.839,4.394-3.823,6.6-3.823,4.8,0,8.282,3.877,8.282,9.22a9.3,9.3,0,0,1-2.537,6.422.579.579,0,0,1-.084.108l-11.819,11.842a.617.617,0,0,1-.437.181A.615.615,0,0,1-1163.313-2315.643Zm-13.23-18.375a8.055,8.055,0,0,0,2.275,5.653l11.391,11.413,11.293-11.316a.537.537,0,0,1,.072-.091,8.07,8.07,0,0,0,2.277-5.656c0-4.627-2.964-7.986-7.048-7.986-1.529,0-3.718,1.383-6.163,3.9a.616.616,0,0,1-.442.187.616.616,0,0,1-.443-.187c-1.036-1.067-3.787-3.9-5.979-3.9C-1173.433-2342.005-1176.543-2338.571-1176.543-2334.019Z" transform="translate(1268 2379)" fill="#fff"/>
</svg>
