<svg xmlns="http://www.w3.org/2000/svg" width="100" height="81.896" viewBox="0 0 100 81.896">
  <path id="icon" d="M39.933,81.9H37.849L0,71.109V7.792L3.359,5.063V68.684l34.647,9.965h3.538l34.8-11.576V5.063L79.7,7.792V69.547l-3.085.935L41.7,81.9ZM1.277,8.43V70.109L38.021,80.583H41.5L76.232,69.229l2.194-.665V8.429l-.8-.653v59.3a1.31,1.31,0,0,1-.884,1.251L41.937,79.9a1.263,1.263,0,0,1-.393.064H38.007a1.248,1.248,0,0,1-.344-.049L3.016,69.951a1.31,1.31,0,0,1-.932-1.267V7.773Zm91.313,56h0V10.634H100V64.428L96.3,77.813Zm1.275-4.576-.074,4.059.438,1.6-.008.007L96.3,73.014l.984-3.56L98.9,63.911l-.176-4.059v-47.9H93.865ZM42.981,23.992,74.5,5.205V65.581L42.981,75.362Zm1.277.761V73.59l28.97-8.99V7.488ZM6.685,65.588V5.2L38.007,23.869V75.342Zm1.277-.979L36.73,73.567V24.629L7.962,7.484ZM92.59,7.723V3.718a3.705,3.705,0,1,1,7.41,0V7.723Zm1.276-4.005V6.443h4.857V3.718a2.429,2.429,0,1,0-4.857,0Z" fill="#fff"/>
</svg>
