<svg xmlns="http://www.w3.org/2000/svg" width="75.028" height="100.836" viewBox="0 0 75.028 100.836">
  <path id="icon" d="M-1446.584-2269.164a.851.851,0,0,1-.85-.85v-8.221h-8.633a.853.853,0,0,1-.854-.85v-8.3a.852.852,0,0,1,.854-.847h8.633v-7.88A31.12,31.12,0,0,1-1474-2326.827a31.091,31.091,0,0,1,31.056-31.056,30.686,30.686,0,0,1,18.756,6.331l9.006-9.007h-7.935a.852.852,0,0,1-.85-.852v-7.739a.85.85,0,0,1,.85-.85h23.287a.854.854,0,0,1,.857.85v23.288a.854.854,0,0,1-.857.85h-7.737a.853.853,0,0,1-.854-.85v-7.322l-8.875,8.877a30.829,30.829,0,0,1,5.4,17.48,30.929,30.929,0,0,1-25.549,30.557v8.042h8.628a.85.85,0,0,1,.851.847v8.3a.851.851,0,0,1-.851.85h-8.628v8.221a.853.853,0,0,1-.855.85Zm-9.229-10.179h8.932a.555.555,0,0,1,.554.554v8.517h7.777v-8.517a.555.555,0,0,1,.554-.554h8.925v-7.777h-8.925a.554.554,0,0,1-.554-.554v-9.063a.555.555,0,0,1,.464-.547A29.827,29.827,0,0,0-1413-2326.827a29.732,29.732,0,0,0-5.469-17.225.554.554,0,0,1,.061-.711l10.148-10.151a.552.552,0,0,1,.6-.12.554.554,0,0,1,.342.512v8.4h7.232v-22.772h-22.778v7.223h9.014a.554.554,0,0,1,.512.342.553.553,0,0,1-.12.6l-10.3,10.3a.554.554,0,0,1-.734.043,29.613,29.613,0,0,0-18.461-6.395,29.982,29.982,0,0,0-29.948,29.948,30.008,30.008,0,0,0,26.082,29.687.554.554,0,0,1,.483.549v8.916a.554.554,0,0,1-.554.554h-8.932Zm-9.986-47.372a23.453,23.453,0,0,1,23.424-23.429,23.455,23.455,0,0,1,23.427,23.429,23.452,23.452,0,0,1-23.427,23.424A23.45,23.45,0,0,1-1465.8-2326.715Zm1.128,0a22.322,22.322,0,0,0,22.3,22.3,22.323,22.323,0,0,0,22.3-22.3,22.325,22.325,0,0,0-22.3-22.3A22.324,22.324,0,0,0-1464.671-2326.715Zm8.031,10.207a.852.852,0,0,1-.865-.836v-6.713a.856.856,0,0,1,.865-.844h27.73a.859.859,0,0,1,.871.844v6.713a.855.855,0,0,1-.871.836Zm.264-1.129h27.209v-6.136h-27.209Zm-.264-10.627a.854.854,0,0,1-.865-.841v-6.713a.851.851,0,0,1,.865-.834h27.73a.854.854,0,0,1,.871.834v6.713a.847.847,0,0,1-.871.841Zm.264-1.128h27.209v-6.131h-27.209Z" transform="translate(1474 2370)" fill="#fff"/>
</svg>
