<svg id="icon" xmlns="http://www.w3.org/2000/svg" width="122" height="101.707" viewBox="0 0 122 101.707">
  <g id="Group_38" data-name="Group 38" transform="translate(15.431 3.654)">
    <path id="Path_97" data-name="Path 97" d="M400.191,1436.689c-4.125,4.139-6.767,9.469-11.324,13.267a51.272,51.272,0,0,0-4.129,3.495c1.151-8.167,6.6-15.69,15.454-16.762Z" transform="translate(-384.166 -1436.149)" fill="#2480dc" fill-rule="evenodd"/>
    <path id="Path_98" data-name="Path 98" d="M383.963,1454.414l.17-1.211c1.324-9.391,7.527-16.106,15.807-17.105l1.157-.141-.823.825a53.233,53.233,0,0,0-4.807,5.837,42,42,0,0,1-6.547,7.455c-.4.33-.807.654-1.222.981a29.771,29.771,0,0,0-2.878,2.487Zm14.912-17.336c-8.286,1.571-12.5,8.742-13.743,15.052.7-.627,1.39-1.174,2.065-1.707.413-.323.813-.641,1.207-.969a41.354,41.354,0,0,0,6.418-7.317A63.629,63.629,0,0,1,398.875,1437.078Z" transform="translate(-383.963 -1435.957)" fill="#2480dc"/>
  </g>
  <g id="Group_39" data-name="Group 39" transform="translate(89.439 3.654)">
    <path id="Path_99" data-name="Path 99" d="M500.749,1436.689c4.126,4.139,6.767,9.469,11.322,13.267a51.282,51.282,0,0,1,4.132,3.495c-1.154-8.167-6.6-15.69-15.454-16.762Z" transform="translate(-499.639 -1436.149)" fill="#2480dc" fill-rule="evenodd"/>
    <path id="Path_100" data-name="Path 100" d="M516.378,1454.41l-.857-.866a29.59,29.59,0,0,0-2.894-2.5c-.41-.325-.816-.645-1.211-.972a42.023,42.023,0,0,1-6.54-7.451,53.439,53.439,0,0,0-4.81-5.841l-.823-.825,1.157.141c8.277,1,14.48,7.714,15.807,17.105Zm-14.912-17.332a63.893,63.893,0,0,1,4.056,5.064,41.462,41.462,0,0,0,6.411,7.312c.388.325.788.64,1.2.96.68.536,1.377,1.086,2.08,1.718C513.963,1445.82,509.75,1438.649,501.466,1437.078Z" transform="translate(-499.244 -1435.957)" fill="#2480dc"/>
  </g>
  <g id="Group_40" data-name="Group 40" transform="translate(9.368 8.367)">
    <path id="Path_101" data-name="Path 101" d="M386.519,1444.069c-6.115,3.258-4.961,11.145-7.1,16.081l.2.038c2.03-4.873,9.875-6.04,12.119-11.589-.155,10.319-10.83,12.251-15.164,20.184-.277-9.144-2.279-21.5,9.947-24.714Z" transform="translate(-375.882 -1442.801)" fill="#2480dc" fill-rule="evenodd"/>
    <path id="Path_102" data-name="Path 102" d="M376.068,1469.829l-.044-1.485c-.029-.933-.076-1.9-.123-2.885-.41-8.583-.921-19.265,10.37-22.234l3.337-.876-3.045,1.624c-3.98,2.122-4.753,6.325-5.5,10.39-.2,1.094-.4,2.153-.65,3.157a21.226,21.226,0,0,1,4.558-3.5c2.522-1.609,5.132-3.273,6.244-6.027l.81-2-.032,2.161c-.094,6.41-4.218,9.749-8.2,12.978-2.619,2.121-5.326,4.313-7.01,7.394Zm7.95-24.971c-8.119,3.606-7.691,12.573-7.31,20.563q.039.785.073,1.551a30.4,30.4,0,0,1,6.5-6.468c3.584-2.9,6.988-5.659,7.751-10.494a18.976,18.976,0,0,1-5.624,4.693c-2.383,1.519-4.633,2.953-5.563,5.188l-.126.3-1.011-.2.2-.462a25.38,25.38,0,0,0,1.361-5.322C380.869,1450.957,381.534,1447.346,384.018,1444.858Z" transform="translate(-375.739 -1442.349)" fill="#2480dc"/>
  </g>
  <g id="Group_41" data-name="Group 41" transform="translate(96.345 8.367)">
    <path id="Path_103" data-name="Path 103" d="M514.418,1444.069c6.118,3.258,4.962,11.145,7.1,16.081l-.2.038c-2.03-4.873-9.875-6.04-12.119-11.589.155,10.319,10.831,12.251,15.164,20.184.281-9.144,2.282-21.5-9.948-24.714Z" transform="translate(-508.766 -1442.801)" fill="#2480dc" fill-rule="evenodd"/>
    <path id="Path_104" data-name="Path 104" d="M524.566,1469.829l-.709-1.3c-1.683-3.081-4.391-5.273-7.01-7.394-3.988-3.229-8.11-6.568-8.2-12.978l-.032-2.161.81,2c1.112,2.754,3.722,4.417,6.244,6.027a21.217,21.217,0,0,1,4.561,3.5c-.252-1-.448-2.067-.65-3.163-.747-4.063-1.522-8.264-5.5-10.387l-3.048-1.624,3.341.876c11.3,2.969,10.783,13.656,10.37,22.242-.047.984-.094,1.948-.123,2.878Zm-14.959-19.82c.763,4.835,4.167,7.593,7.75,10.494a30.405,30.405,0,0,1,6.5,6.468c.022-.507.047-1.023.072-1.545.385-7.993.817-16.964-7.309-20.569,2.487,2.488,3.149,6.1,3.75,9.355a25.1,25.1,0,0,0,1.362,5.326l.2.463-1.015.193-.126-.3c-.93-2.234-3.18-3.668-5.563-5.188A18.964,18.964,0,0,1,509.607,1450.009Z" transform="translate(-508.611 -1442.349)" fill="#2480dc"/>
  </g>
  <g id="Group_42" data-name="Group 42" transform="translate(3.123 16.475)">
    <path id="Path_105" data-name="Path 105" d="M373.612,1456.223c-3.291,6.017.236,11.955-.987,21.95.051.054.051.234.243.167,1.906-8.713,9.156-10.112,11.06-14.474-1.308,9.878-10.045,14.8-11.555,23.759-.419-4.643-10.776-19.826,1.239-31.4Z" transform="translate(-367.414 -1454.103)" fill="#2480dc" fill-rule="evenodd"/>
    <path id="Path_106" data-name="Path 106" d="M372.106,1490.018l-.281-3.111a21.575,21.575,0,0,0-1.368-4.378c-2.55-6.791-6.818-18.157,2.726-27.353l1.9-1.83-1.267,2.313c-1.815,3.319-1.488,6.594-1.075,10.741a54.352,54.352,0,0,1,.356,8.56c1.532-3.851,4.224-6.037,6.459-7.853,1.7-1.379,3.158-2.567,3.854-4.157l1.144-2.625-.374,2.84c-.694,5.236-3.433,9.1-6.081,12.837-2.452,3.461-4.768,6.728-5.478,10.936Zm.1-32.613c-7.121,8.52-3.323,18.64-.993,24.84.4,1.063.753,2,1.008,2.816,1.018-3.6,3.149-6.6,5.22-9.525,2.235-3.155,4.538-6.405,5.556-10.475a22.43,22.43,0,0,1-2.934,2.672c-2.723,2.212-5.809,4.718-6.95,9.938l-.047.221-.215.074a.545.545,0,0,1-.712-.328l-.13-.137.066-.132a46.7,46.7,0,0,0-.139-10.888C371.611,1463.189,371.318,1460.258,372.207,1457.405Z" transform="translate(-367.268 -1453.347)" fill="#2480dc"/>
  </g>
  <g id="Group_43" data-name="Group 43" transform="translate(101.59 16.473)">
    <path id="Path_107" data-name="Path 107" d="M527.094,1456.223c3.294,6.017-.237,11.955.986,21.95-.051.054-.051.234-.243.167-1.906-8.713-9.156-10.112-11.06-14.474,1.308,9.878,10.045,14.8,11.558,23.759.419-4.643,10.777-19.826-1.241-31.4Z" transform="translate(-516.001 -1454.101)" fill="#2480dc" fill-rule="evenodd"/>
    <path id="Path_108" data-name="Path 108" d="M528.182,1490.012l-.521-3.074c-.712-4.208-3.026-7.475-5.478-10.932-2.651-3.739-5.39-7.6-6.084-12.841l-.375-2.84,1.144,2.625c.7,1.59,2.159,2.779,3.855,4.157,2.235,1.816,4.926,4,6.458,7.853a53.953,53.953,0,0,1,.36-8.559c.413-4.146.737-7.422-1.079-10.742l-1.267-2.315,1.9,1.831c9.547,9.2,5.279,20.561,2.729,27.353a21.529,21.529,0,0,0-1.368,4.378Zm-10.9-24.951c1.018,4.07,3.323,7.32,5.56,10.477,2.071,2.922,4.2,5.929,5.22,9.523.255-.812.611-1.752,1.009-2.816,2.33-6.2,6.127-16.321-.993-24.84.886,2.852.593,5.785.265,9.078a46.723,46.723,0,0,0-.139,10.886l.022.187-.129.137a.509.509,0,0,1-.668.273l-.214-.074-.047-.221c-1.141-5.22-4.227-7.725-6.95-9.938A22.453,22.453,0,0,1,517.282,1465.061Z" transform="translate(-515.725 -1453.345)" fill="#2480dc"/>
  </g>
  <g id="Group_44" data-name="Group 44" transform="translate(0 28.248)">
    <path id="Path_109" data-name="Path 109" d="M365.594,1478.857c-1.306,6.373,4.664,13.888,6.168,22.644.107.04.179-.051.217-.12-.5-6.764,1.45-10.007,4.914-15.028a16.868,16.868,0,0,0,1.752-4.434c1.708,2.294.079,7.328-1.7,13.625-1.258,4.448-3.06,8.217-2.563,14.83-2.187-2.658-8.693-10.66-9.291-13.765-1.917-5.979-2.273-11.984.5-17.752Z" transform="translate(-363.176 -1475.75)" fill="#2480dc" fill-rule="evenodd"/>
    <path id="Path_110" data-name="Path 110" d="M374.735,1510.507l-.81-.983c-3.984-4.843-8.845-11.194-9.377-13.947-2.184-6.8-2.011-12.708.539-18l1.409-2.931-.652,3.186c-.728,3.56.955,7.645,2.736,11.971a66.2,66.2,0,0,1,2.789,7.658c.19-5.114,2.128-8.206,5.05-12.441a16.694,16.694,0,0,0,1.7-4.313l.217-.8.495.664c1.7,2.28.4,6.822-1.239,12.573l-.4,1.4c-.243.857-.5,1.689-.766,2.52a28.892,28.892,0,0,0-1.781,12.169Zm-9.856-30.29c-1.519,4.509-1.365,9.495.45,15.16.381,1.965,3.363,6.433,8.438,12.676a30.644,30.644,0,0,1,1.885-11.229c.258-.824.52-1.648.759-2.5l.4-1.405c1.381-4.837,2.506-8.786,1.794-11.014a15.2,15.2,0,0,1-1.513,3.55c-3.439,4.984-5.352,8.119-4.855,14.786l.01.122-.06.105a.575.575,0,0,1-.715.3l-.215-.082-.038-.227a49.2,49.2,0,0,0-3.388-10.354C366.4,1486.635,365.036,1483.315,364.879,1480.217Z" transform="translate(-363.032 -1474.643)" fill="#2480dc"/>
  </g>
  <g id="Group_45" data-name="Group 45" transform="translate(105.413 28.248)">
    <path id="Path_111" data-name="Path 111" d="M535.224,1478.857c1.3,6.373-4.661,13.888-6.167,22.644-.1.04-.18-.051-.218-.12.507-6.764-1.45-10.007-4.911-15.028a16.736,16.736,0,0,1-1.752-4.434c-1.708,2.294-.082,7.328,1.7,13.625,1.258,4.448,3.061,8.217,2.563,14.83,2.19-2.658,8.693-10.66,9.3-13.765,1.913-5.979,2.269-11.984-.508-17.752Z" transform="translate(-521.053 -1475.75)" fill="#2480dc" fill-rule="evenodd"/>
    <path id="Path_112" data-name="Path 112" d="M525.8,1510.505l.094-1.269a28.878,28.878,0,0,0-1.78-12.169c-.262-.831-.523-1.663-.766-2.52l-.394-1.388c-1.642-5.759-2.94-10.308-1.241-12.59l.495-.664.218.8a16.249,16.249,0,0,0,1.708,4.331c2.913,4.221,4.848,7.314,5.034,12.422a66.715,66.715,0,0,1,2.79-7.652c1.78-4.327,3.464-8.414,2.736-11.975l-.652-3.186,1.409,2.931c2.55,5.293,2.723,11.2.529,18.049-.526,2.723-5.386,9.066-9.367,13.9Zm-3.867-28.6c-.715,2.23.413,6.186,1.8,11.032l.394,1.387c.24.85.5,1.674.759,2.5a30.649,30.649,0,0,1,1.885,11.23c5.071-6.232,8.053-10.7,8.428-12.632,1.825-5.706,1.976-10.7.46-15.206-.158,3.1-1.525,6.422-2.953,9.9a49.282,49.282,0,0,0-3.388,10.349l-.038.224-.212.083a.566.566,0,0,1-.718-.3l-.06-.105.01-.122c.5-6.662-1.412-9.8-4.838-14.77A14.6,14.6,0,0,1,521.929,1481.907Z" transform="translate(-520.911 -1474.643)" fill="#2480dc"/>
  </g>
  <g id="Group_46" data-name="Group 46" transform="translate(0.06 45.567)">
    <path id="Path_113" data-name="Path 113" d="M363.98,1504.731c.826,7.206,9.827,12.677,13.66,19.3.111.041.148-.05.158-.117-3.783-7.908.561-13.793.416-20.384,4.57,10.073.8,17.465,6.03,28.66-13.143-6.922-22.28-15-20.263-27.459Z" transform="translate(-363.268 -1501.57)" fill="#2480dc" fill-rule="evenodd"/>
    <path id="Path_114" data-name="Path 114" d="M384.962,1532.408l-1.062-.558c-20.4-10.75-21.66-20.547-20.471-27.881l.467-2.883.331,2.9c.488,4.266,4.059,8.039,7.514,11.687a64.308,64.308,0,0,1,4.564,5.174c-1.214-4.157-.394-7.78.4-11.3a27.6,27.6,0,0,0,.952-6.7l-.044-1.97.816,1.794c2.235,4.928,2.5,9.131,2.771,13.58.287,4.6.58,9.352,3.256,15.077ZM363.97,1506.4c-.523,9.3,5.393,16.671,19.271,24.179-2.295-5.38-2.575-9.9-2.846-14.288-.24-3.848-.467-7.51-2-11.6a38.8,38.8,0,0,1-.9,5.03c-.924,4.089-1.879,8.314.513,13.319l.054.111-.016.121a.547.547,0,0,1-.256.4l-.167.1-.413-.115-.073-.126a42.363,42.363,0,0,0-5.982-7.3C368.232,1513.141,365.224,1509.967,363.97,1506.4Z" transform="translate(-363.113 -1500.872)" fill="#2480dc"/>
  </g>
  <g id="Group_47" data-name="Group 47" transform="translate(100.096 45.566)">
    <path id="Path_115" data-name="Path 115" d="M535.147,1504.731c-.829,7.206-9.831,12.677-13.664,19.3-.111.041-.148-.05-.158-.117,3.782-7.908-.561-13.793-.413-20.384-4.574,10.073-.8,17.465-6.029,28.66,13.14-6.922,22.278-15,20.263-27.459Z" transform="translate(-514.01 -1501.569)" fill="#2480dc" fill-rule="evenodd"/>
    <path id="Path_116" data-name="Path 116" d="M513.7,1532.408l.507-1.086c2.673-5.722,2.966-10.475,3.253-15.072.278-4.451.536-8.654,2.774-13.585l.816-1.8-.044,1.971a27.469,27.469,0,0,0,.952,6.707c.795,3.523,1.611,7.144.4,11.3a64.1,64.1,0,0,1,4.564-5.175c3.454-3.649,7.025-7.42,7.517-11.686l.335-2.9.463,2.881c2.257,13.961-9.755,22.233-20.471,27.879Zm6.569-27.713c-1.539,4.093-1.766,7.753-2,11.605-.271,4.381-.552,8.9-2.843,14.282,13.875-7.508,19.791-14.884,19.271-24.179-1.255,3.562-4.262,6.736-7.187,9.825a42.4,42.4,0,0,0-5.983,7.3l-.072.126-.318.118-.262-.1a.546.546,0,0,1-.255-.4l-.016-.121.053-.111c2.392-5,1.438-9.229.517-13.315A38.411,38.411,0,0,1,520.268,1504.695Z" transform="translate(-513.699 -1500.87)" fill="#2480dc"/>
  </g>
  <g id="Group_48" data-name="Group 48" transform="translate(3.788 58.006)">
    <path id="Path_117" data-name="Path 117" d="M369.624,1527.183c1.112,2.6,3.943,5.257,7.666,7.442,4.712,2.765,9.361,3.716,13.754,7.912-4.2-4.977-5.046-9.437-7-21.43,3.536,3.407,5.534,7.685,7.306,12.639,1.664,4.659,2.588,9.936,7.136,13.758-3.417-1.393-10.7-1.532-16.7-4.463a22.407,22.407,0,0,1-12.166-15.857Z" transform="translate(-368.552 -1519.974)" fill="#2480dc" fill-rule="evenodd"/>
    <path id="Path_118" data-name="Path 118" d="M400.326,1548.44l-2.373-.967a17.638,17.638,0,0,0-2.934-.81l.813.964-1.062-1.015c-.7-.141-1.45-.278-2.238-.421a43.523,43.523,0,0,1-11.3-3.193,22.768,22.768,0,0,1-12.387-16.145l-.675-3.6,1.443,3.369c1.053,2.457,3.713,5.032,7.5,7.254a51.543,51.543,0,0,0,4.836,2.414,38.343,38.343,0,0,1,6.471,3.481c-2.619-4.164-3.517-8.962-5.153-19l-.2-1.2.873.842c3.8,3.66,5.8,8.311,7.407,12.793.309.874.6,1.769.885,2.672,1.239,3.873,2.518,7.879,6.128,10.913Zm-6.143-2.764c.854.162,1.648.326,2.361.507-2.815-2.978-3.962-6.572-5.078-10.061-.287-.895-.571-1.78-.88-2.646-1.437-4.023-3.205-8.182-6.32-11.577,1.857,11.315,2.768,15.314,6.7,19.974Zm-23.895-16.406a22.039,22.039,0,0,0,11.3,13,42.974,42.974,0,0,0,11.089,3.124c.346.063.687.124,1.018.186l-3.306-3.158a28.91,28.91,0,0,0-8.772-5.4,52.5,52.5,0,0,1-4.911-2.452A22.848,22.848,0,0,1,370.288,1529.271Z" transform="translate(-368.17 -1519.57)" fill="#2480dc"/>
  </g>
  <g id="Group_49" data-name="Group 49" transform="translate(86.057 58.006)">
    <path id="Path_119" data-name="Path 119" d="M526.533,1527.183c-1.11,2.6-3.943,5.257-7.665,7.442-4.712,2.765-9.358,3.716-13.752,7.912,4.205-4.977,5.046-9.437,7-21.43-3.537,3.407-5.535,7.685-7.31,12.639-1.664,4.659-2.588,9.936-7.136,13.758,3.416-1.393,10.7-1.532,16.7-4.463a22.408,22.408,0,0,0,12.167-15.857Z" transform="translate(-495.448 -1519.974)" fill="#2480dc" fill-rule="evenodd"/>
    <path id="Path_120" data-name="Path 120" d="M494.656,1548.44l1.964-1.65c3.609-3.034,4.889-7.04,6.127-10.913.29-.9.574-1.8.886-2.672,1.607-4.484,3.618-9.137,7.41-12.793l.873-.842-.2,1.2c-1.636,10.04-2.534,14.839-5.153,19a38.362,38.362,0,0,1,6.471-3.483,51.127,51.127,0,0,0,4.832-2.413c3.789-2.224,6.452-4.8,7.5-7.254l1.447-3.387-.678,3.621A22.768,22.768,0,0,1,513.75,1543a43.522,43.522,0,0,1-11.3,3.193c-.791.143-1.539.28-2.238.421l-1.062,1.015.813-.964a17.539,17.539,0,0,0-2.937.81Zm16.063-26.54c-3.114,3.393-4.883,7.552-6.326,11.577-.306.865-.59,1.751-.877,2.646-1.115,3.489-2.263,7.083-5.077,10.061.715-.181,1.51-.345,2.364-.507l3.212-3.8C507.951,1537.213,508.862,1533.215,510.719,1521.9Zm13.976,7.374a22.919,22.919,0,0,1-6.415,5.3,52.078,52.078,0,0,1-4.908,2.451,28.945,28.945,0,0,0-8.772,5.4l-3.306,3.158c.331-.062.669-.123,1.015-.186,3.338-.61,7.5-1.368,11.089-3.124A22.035,22.035,0,0,0,524.694,1529.273Z" transform="translate(-494.656 -1519.57)" fill="#2480dc"/>
  </g>
  <g id="Group_50" data-name="Group 50" transform="translate(12.973 70.081)">
    <path id="Path_121" data-name="Path 121" d="M382.694,1547.8c6.965,7.256,18.788,4.744,25.212,6.373-6.874-3.108-8.69-9.191-11.545-14.666,6.975,2.695,10.578,13.531,22.968,15.6-6.527.823-14.527,5.617-25.061,2.878a18.651,18.651,0,0,1-11.574-10.184Z" transform="translate(-381.172 -1538.748)" fill="#2480dc" fill-rule="evenodd"/>
    <path id="Path_122" data-name="Path 122" d="M400.287,1558.962a26.267,26.267,0,0,1-6.663-.856,19.011,19.011,0,0,1-11.835-10.393l-1.16-2.35,1.812,1.891c4.731,4.925,11.7,5.24,17.843,5.519,1.664.076,3.268.148,4.724.315-4.267-2.743-6.241-6.85-8.154-10.841-.457-.945-.911-1.892-1.393-2.822l-.495-.949,1,.386c2.83,1.095,5.128,3.5,7.562,6.037,3.725,3.9,7.949,8.31,15.328,9.539l2.72.454-2.736.345a42.838,42.838,0,0,0-6.244,1.491A43.227,43.227,0,0,1,400.287,1558.962Zm-16.649-9.571a17.841,17.841,0,0,0,10.209,7.94c7.243,1.89,13.235.153,18.521-1.377,1.494-.432,2.931-.848,4.312-1.152-6.4-1.672-10.278-5.727-13.739-9.344-2.058-2.15-4.016-4.2-6.241-5.373.3.6.589,1.208.879,1.814,2.254,4.692,4.381,9.122,9.951,11.64l4.163,1.881-4.428-1.124a37.854,37.854,0,0,0-7.02-.717C394.941,1553.338,388.486,1553.046,383.638,1549.391Z" transform="translate(-380.629 -1538.476)" fill="#2480dc"/>
  </g>
  <g id="Group_51" data-name="Group 51" transform="translate(68.085 70.081)">
    <path id="Path_123" data-name="Path 123" d="M510.7,1547.8c-6.966,7.256-18.792,4.744-25.215,6.373,6.874-3.108,8.69-9.191,11.549-14.666-6.979,2.695-10.581,13.531-22.971,15.6,6.531.823,14.527,5.617,25.061,2.878A18.65,18.65,0,0,0,510.7,1547.8Z" transform="translate(-471.271 -1538.748)" fill="#2480dc" fill-rule="evenodd"/>
    <path id="Path_124" data-name="Path 124" d="M491.556,1558.96a43.21,43.21,0,0,1-12.3-2.232,42.859,42.859,0,0,0-6.247-1.491l-2.736-.345,2.72-.454c7.379-1.229,11.6-5.644,15.328-9.537,2.434-2.542,4.731-4.944,7.565-6.039l1-.386-.5.949c-.486.931-.939,1.88-1.4,2.829-1.917,3.987-3.887,8.093-8.154,10.834,1.457-.167,3.064-.239,4.725-.315,6.149-.279,13.115-.594,17.846-5.519l1.812-1.891-1.16,2.35a18.993,18.993,0,0,1-11.816,10.387A26.367,26.367,0,0,1,491.556,1558.96ZM475.17,1554.8c1.38.3,2.821.72,4.315,1.154,5.285,1.526,11.274,3.266,18.539,1.37a17.813,17.813,0,0,0,10.19-7.934c-4.847,3.655-11.305,3.948-16.61,4.189a37.847,37.847,0,0,0-7.019.717l-4.429,1.124,4.164-1.881c5.566-2.517,7.7-6.945,9.947-11.636.293-.607.586-1.215.885-1.819-2.228,1.176-4.185,3.223-6.244,5.375C485.449,1549.076,481.569,1553.129,475.17,1554.8Z" transform="translate(-470.278 -1538.476)" fill="#2480dc"/>
  </g>
  <g id="Group_52" data-name="Group 52" transform="translate(18.352 85.666)">
    <path id="Path_125" data-name="Path 125" d="M472.189,1570.26c-6.954,2.644-14.36.381-19.8-3.833-2.484-1.629-7.2-4.923-10.593-3.978a51.17,51.17,0,0,1,14.218,10.175,26.516,26.516,0,0,1-2.827,2.566c-4.318-4.763-9.137-8.964-14.5-11.631-4.457,1.809-11.571,7.893-14.549,11.659l-2.975-2.635a47.412,47.412,0,0,1,14.382-10.029c-5.172-1.214-8.059,2.121-11.835,4.67-4.678,3.313-12.063,5.595-17.749,3.319a18.142,18.142,0,0,1-8.337-5.937c4.444,3.124,12.847,2.521,17.9.5,6.8-3.016,13.7-6.855,23.142-3.8,7.187-2.437,14.149-.713,20.645,2.821,6.858,3,13.109,4.287,20.216.536a15.213,15.213,0,0,1-7.324,5.595Z" transform="translate(-395.928 -1559.762)" fill="#2480dc" fill-rule="evenodd"/>
    <path id="Path_126" data-name="Path 126" d="M423.578,1575.657l-3.612-3.2.3-.3a46.785,46.785,0,0,1,13.364-9.561c-3.347-.331-5.62,1.371-8.227,3.32-.675.5-1.358,1.015-2.074,1.5-4.762,3.373-12.207,5.722-18.126,3.36-3.924-1.549-6.711-3.538-8.513-6.078l-1.359-1.912,1.92,1.349c4.179,2.936,12.346,2.524,17.512.456.589-.26,1.188-.533,1.793-.807,6.294-2.854,12.806-5.808,21.5-3.042,6.494-2.154,13.308-1.21,20.841,2.891,5.907,2.583,12.431,4.444,19.835.536l1.679-.887-1.172,1.493a15.531,15.531,0,0,1-7.5,5.724c-6.373,2.425-13.916.966-20.191-3.893l-.4-.26c-2.2-1.454-5.689-3.755-8.557-3.8a51.874,51.874,0,0,1,13.109,9.653l.274.269-.256.287a26.714,26.714,0,0,1-2.874,2.609l-.3.245-.258-.285c-4.823-5.319-9.475-9.068-14.222-11.459-4.305,1.825-11.249,7.714-14.218,11.467Zm-2.44-3.24,2.342,2.074c3.249-3.956,10.092-9.686,14.445-11.451l.167-.069.164.082c4.81,2.389,9.509,6.13,14.367,11.437a26.824,26.824,0,0,0,2.222-2,50.109,50.109,0,0,0-13.827-9.826l-.978-.464,1.043-.29c3.407-.939,7.843,2,10.5,3.754l.419.277c6.083,4.7,13.345,6.11,19.438,3.794l.009,0a13.742,13.742,0,0,0,5.96-4.055c-7.016,2.979-13.21,1.152-18.877-1.327-7.41-4.028-14.051-4.944-20.355-2.81l-.126.044-.126-.041c-8.472-2.739-14.861.162-21.042,2.969-.609.274-1.211.547-1.813.815-4.677,1.873-11.725,2.422-16.383.493a19.509,19.509,0,0,0,6.808,4.2c5.588,2.24,12.926-.126,17.367-3.273.712-.481,1.387-.986,2.052-1.482,2.944-2.2,5.727-4.283,10.108-3.251l1.122.263-1.04.493A46.954,46.954,0,0,0,421.138,1572.417Z" transform="translate(-395.327 -1559.617)" fill="#2480dc"/>
  </g>
  <g id="Group_53" data-name="Group 53" transform="translate(14.706)">
    <path id="Path_127" data-name="Path 127" d="M435.888,1522.474a45.737,45.737,0,1,1,45.738-45.737A45.786,45.786,0,0,1,435.888,1522.474Zm0-90.668a44.931,44.931,0,1,0,44.93,44.931A44.98,44.98,0,0,0,435.888,1431.806Zm0,81.772a36.842,36.842,0,1,1,36.843-36.84A36.884,36.884,0,0,1,435.888,1513.578Zm0-72.876a36.035,36.035,0,1,0,36.036,36.036A36.078,36.078,0,0,0,435.888,1440.7Zm0,63.72a27.685,27.685,0,1,1,27.687-27.684A27.716,27.716,0,0,1,435.888,1504.422Zm0-54.564a26.879,26.879,0,1,0,26.88,26.88A26.911,26.911,0,0,0,435.888,1449.857Zm0,44.829a17.95,17.95,0,1,1,17.95-17.948A17.971,17.971,0,0,1,435.888,1494.686Zm0-35.092a17.142,17.142,0,1,0,17.143,17.144A17.163,17.163,0,0,0,435.888,1459.594Z" transform="translate(-390.154 -1431)" fill="#2480dc"/>
  </g>
  <g id="Group_54" data-name="Group 54" transform="translate(51.392 33.173)">
    <path id="Path_128" data-name="Path 128" d="M449.01,1499.287a9.178,9.178,0,1,1,8.923-9.172A9.06,9.06,0,0,1,449.01,1499.287Zm0-17.542a8.371,8.371,0,1,0,8.116,8.37A8.255,8.255,0,0,0,449.01,1481.745Z" transform="translate(-440.09 -1480.938)" fill="#2480dc"/>
  </g>
  <g id="Group_55" data-name="Group 55" transform="translate(28.168 0.613)">
    <path id="Path_129" data-name="Path 129" d="M441.118,1522.079h-.807v-44.956l-31.79-31.789.574-.571,31.216,31.217v-44.149h.807v44.956l31.79,31.788-.574.571-31.216-31.216Z" transform="translate(-408.521 -1431.832)" fill="#2480dc"/>
  </g>
  <g id="Group_56" data-name="Group 56" transform="translate(15.312 41.563)">
    <rect id="Rectangle_27" data-name="Rectangle 27" width="90.248" height="0.807" fill="#2480dc"/>
  </g>
  <g id="Group_57" data-name="Group 57" transform="translate(28.168 13.545)">
    <path id="Path_130" data-name="Path 130" d="M409.095,1513.756l-.574-.57,63.813-63.812.574.571Z" transform="translate(-408.521 -1449.373)" fill="#2480dc"/>
  </g>
  <g id="Group_58" data-name="Group 58" transform="translate(20.269 15.553)">
    <path id="Path_131" data-name="Path 131" d="M399.409,1493.334h-.549l-.126-.233-.337-.041-.482.022-.382.041-.252.275-.148.251-.145.212v.337l-.148.252-.169.274-.167.23v.423l-.085.359.021.441v.4l.023.338.167.252.022.359.126.356.167.252.126.382.233.293.293.36.063.377.571.127.4.107.378.378.17.252.293.3.233.189.378.1h.378l-.063-.293.212-.085.441.252.274.337.36.233.23.271.233.212.442.273.233.064.482.189.274.211.234.255.018.293.234.356.189.3.359.653.293.17,1.308.082.631,1.16,1.412.949,2.02,2.065,1.053.082.319.126,2.884.085.422.252.23.17.316.082.381.022h.315l.59-.1.36-.17.293-.23.3-.274.463-.041.842-.044.252-.275.719-.018.989.018.546-.545-.019-.823-.8-1.264-.759-1.053-.464-.675-.422-.76-.546-.63-.59-.589-.507-.378.022-.612.4-.315.167-.485.063-.4v-.549l-.082-.441-.192-.211-.249-.7-.151-.334-.271-.256-.234-.126.107-1.768-.211-.126.167-1.475-.293-.167-.063-.592-.233-.167.044-1.3-.318-.337v-.549l-1.62-1.938-.086-1.39-.23-.167.041-.4.275-.3.337-.23.5-.17.7-.63.063-.864h1.116l.422-.315.1-.549-.212-.7-.189-.42-.1-.359-.233-.189.041-.464.337-.251.338-.044.233-.231,1.116.019.23.274.337.274.108.5.085.823-.211.148.018,1.475.256.422-.234.252-.359.441h-.779l-.211-.293-.316-.066-.126-.23-.652.085.022.735.167.3.041.842-.4.107-.315.293-.4.148.107.442.4.381.271.378.337.17.274-.043.032-.243.239-.1.013-.325.031-.873.231-.145.125-.23.189.032.051-.252.756.031.023.189.779-.022.239.073h.41l.347-.019.355.063.086.177.852.031.176.221.684.041.68.806.885.107,1.242,1.746.485.063.126-.737.316-.019,0,.334.189.158.05,1.586.265.021,1.334-1.1.022-1.081.23.01.031-.262h.546l.526.492.744.075.63.044.612.019.715-.082.422.041.9-.274.422-.063.063-.252,1.16.041.589-.567.063-.568.019-.467.381-.63.148-.441.271-.3.022-.4.189-.211.022-.253-.274-.125v-.612l-.463-.167-.063-.212h-2.591l-.548.567.021,1.053-.5.507-.382.082-.189.467-.231.252-.044.315-.756-.022-.023-.251-.22.006.019-.252.737-.041.1-.2.189-.041.032-.316.032-.305.013-.407.233-.211.085-.359.293-.231.173-.157.032-.46-.3-.063v-.252l.018-.432-.848-.132-.126-.5-.212-.148.086-.464.23-.086.086-.926.211-.419.189-.319.251-.337.338-.334.4-.315.3-.341.189-.189.378-.126.4-.126.148-.252.378-.085.378-.167.36-.3.233-.211.378-.293.089-.24-.022-.271v-.283l-.01-.221-.243-.126.013-1.04.23-.021.117-.211.64.012.01.442-.2.022-.116-.107-.24.044-.18.186.022.252v.284l.145.211.271.2.233.338.253.23.419.233.378.126.3.252.568-.022.422.085.422.233.378.378.36.378.337.274.126.274.4.019.1.445v.8l.3.1-.044.549-.231.148-.211.148-.167.23-.148.189-.041.337.041.338.231.148.189.23.274.234.319.126.082.252.233.3-.085.419v.3l.063.3.041.378.255.293.293.318v.4l-.1.36-.274.274-.126.315.041.337-.231.211-.378-.041h-.422l-.422.063-.422.1-.356.17-.29.094-.179.252-.136.284-.073.378-.139.211-.145.24-.01.52-.189.189-.356.378-.189.338-.255.3-.211.144-.189.252-.126.319-.147.274-.271.293-.234.379-.019.337-.337.192-.107.356-.022.337v.36l-.208.145-.044.359.063.3.023.293.04.36.274.189.173.189v.23l-.094.18h-.234l-.176-.012-.284.031-.22.107-.189.114-.167.085-.022.158-.117.113-.032.18.094.063.022.17.18.05.145.076.013.217a.879.879,0,0,1-.192.035c-.073,0-.325.01-.325.01l-.019.239-.053.212.022.158-.044.2-.243.063-.06.18-.212.01-.378-.018-.136.154-.063.18-.022.233-.167.189-.107.316-.23.23-.256.3v.4l-.167.3-.316.211-.359.082-.189.252-.252.171-.3.167-.23.3v.315l-.275.252-.148.318.086.335-.252.148-.233.211-.338.252-.041.4v.359l.126.274.356.4.233.17.022.422.189.23.252.359.253.316.125.274.275.274.3.063.275.293.463.107.567.252.464.274.381.086.23.271.274.233.378.167.234.36.23.1.359.212.356.3.4.252.338.274.274.3.356.189.255.23.211.23.293.192.422.126,2.42.148.086.315.086.4-.192.126-.23.252-.231.359-.107.419.126.233.108.23-.044.274.251.378.234.044.23.316.3.359.442.082.337.233.4.148.318.338.356.23.189.382.3.355.356.3.13.189.189.208.252.338.252.17.234.275.293.23.359.189.275.193.355.1.275.189.252.17.274.208.233.341.464.23.251.167.378.192.3-.063.315.019.4-.189.167-.167.255-.3.545-.316.36-.211.463-.252.356-.4.382-.252.422-.381.4-.378.445-.357.4-.445.293-.378.3-.463.357-.507.3-.464.126-.441.252-.464.274-.441.108-.445.041-.526.231-.356.17-.382.167-.463.044-.378.1-.378.1-.234v-.63l-.189-.315-.209-.212v-.378l.209-.129.126-.42.17-.148.108-.337.23-.148.1-.293.189-.233.17-.274.148-.315L459,1508.1l-.189-.252-.189-.252-.253-.17-.189-.126-.341-.189-.126-.252-.271-.148-.255-.019-.167-.192-.189-.212-.233-.1-.148-.189.022-.274.022-.378.167-.212.17-.315.019-.252.255-.192.271-.126.274.063.211.211.17.211.337.212.1.211.274.274.253.041.021.337.275.148a1.574,1.574,0,0,1,.293.4l.233.211.189.107.167.378.234.211.126.359.126.271.018.318.17.293.234.252.252.211.23.107.422-.062.293-.107.256-.022.4-.041.378-.019.359-.044.041-.229.356-.044v-.274l-.063-.464.108-.4v-.441l-.252-.316-.044-.4-.252-.189-.041-.445.019-.482v-.36l-.23-.211v-.4l-.189-.23-.274-.19-.211-.233-.274-.1-.23-.192h-.319l-.441.022,0,.252-.05.2.01.2-.094.116-.24-.031-.148-.1v-.139l-.063-.114-.157-.085-.126-.167-.073-.136-.233-.094-.113-.19-.148-.179-.2-.126-.167-.189-.148-.126-.22-.085-.117-.24-.158-.126-.01-.41-.126-.252-.158.022-.072-.2.032-.324-.139-.211-.094-.284-.283-.041h-.253l-.23-.158-.009-.261-.1-.284-.157-.158-.1-.262-.041-.17-.2-.082-.23.041-.243-.073-.082.145.022.212-.19.125.01.189-.18.18-.085.218-.06.243-.013.274v.22l-.094.23-.24.2-.179.265-.422.233h-.422l-.652.086-.5-.19-.612.085-.422-.107-.652-.063-.315-.212h-.4l-.485-.293h-.5l-.378-.338-.359.019-.441-.082-.319.063-.082-.423-.445-.23-.019-.274.422-.1.334.06.4-.041h.464l.526.1.422.085.423.108.23.378.4.018.422.107.419.041.445.063.378.085.316.148.359.085h.545l.422-.044.252-.19.022-.337.274-.379v-.4l.23-.4.274-.357.126-.359-.082-.252.126-.464.063-.337.148-.17-.021-.337.1-.252.066-.568.083-.252-.063-.485-.063-.464-.212-.337-.189-.378a1.3,1.3,0,0,1-.379-.022v-.233l.083-.23.255-.085.041-.158.167-.171.054-.22.136-.176.1-.158.107-.18.145-.157.212-.177.053-.17h.23l.072.189.17.13.063.164.145.066.17-.044.167-.009h.145l.085-.148.063-.167.043-.17-.013-.155.022-.17.429.021.243-.015.189.148h.274l.209-.1.3.041h.316l.3-.063.359.063.378-.041.378-.022.252-.23a.376.376,0,0,1,.274-.318l.338.063.1.233.255.1.274.022.293.022.233.041.23.041.208.015h.167l.18.032.186.009.129-.082.01.158.136.082.117.013.158.063.23-.063.107-.139-.066-.136a.46.46,0,0,1,.054-.18.4.4,0,0,0,.063-.154l.094-.17.148-.136a.421.421,0,0,0,.167.072c.063,0,.116-.062.18-.062s.177.107.177.107l.243-.053.072-.126.158-.054.126-.082v-.233l.117-.231-.094-.126.041-.23-.116-.167-.186-.212-.252-.274.06-.211-.248-.167-.171-.17.148-.419.041-.319.107-.23c.189-.107.189-.4.189-.4l-.126-.36.06-.23.17-.3-.148-.273.108-4.908-.148-.23-.022-.338-.063-.445.022-.378v-.419l-.23-.211.019-1.623.211-.211.022-.526-.274-.252-.044-.3-.526.022v.316c-.23.044-.23.381-.23.381l-.148.23-.126.274-.085.441-.022.256-.442.018v.59l-.1.318-.255.189.022.316-.126.252-.126.315-.022.823.044.779.208.233-.041,1.328s.022.5.022.611a5.481,5.481,0,0,0,.126.589l-.23.653-.107,1.79-.252.167-.19.382.041.463-.019.356-.212.044.051.706-.17.176-.154-.072-.054-.158.01-.167-.072-.167-.032-.369-.136-.19-.189-.274a1.2,1.2,0,0,0-.2-.2c-.073-.041-.262-.189-.262-.189l-.23-.167-.189-.315a1.181,1.181,0,0,1-.211-.148c-.041-.051-.189-.208-.189-.208v-.305l-.1-.442-.252-.293-.126-.319-.192-.23.2-.113.117.009.18.022.23-.01.23-.094.17.094.375.019.211-.145.032-.229.136-.2.139-.221-.044-.3.054-.243v-.19l.041-.211.076-.158-.022-.167.094-.116-.01-.5-.305-.1-.252.022-.136-.022-.032-.2-.148-.094.019-.22-.155-.032v-.218l-.01-.265.061-.23.161-.032.072-.211.073-.158.179.022.063-.189h.23l.158-.1.243.114.167-.158.063-.145.167-.032.066-.283.148-.231.208-.4.234-.422.126-.382.085-.117.088-.05.1-.054.013-.142-.013-.122.035-.256-.012-.419.18-.063.072-.261.148-.108.079-.2.022-.464-.063-.378.019-.3-.145-.167-.044-.359.044-.675-.022-.4.212-.1.1-.337-.063-.482-.022-.318.022-.274-.208-.167-.066-.36-.019-.441-.2-.126-.17-.186-.189-.035-.176-.1-.117-.126-.177.012-.1-.286.022-.209.2-.072.161-.139-.057-.135.044-.211v-.293l-.1-.262-.167.018-.243-.113-.136-.148.041-.221.018-.252v-.627l-.23-.1-.072-.208-.29.015-.152.032-.327-.022-.274.069-.136.066-.145.133-.293-.016-.161-.032-.088-.2-.022-.3.022-.287-.237-.057-.006-.245-.1-.242-.186-.032-.22-.3-.192-.107-.555-.542-.419-.423-.337-.756-.256-.444-.189-.316-.253-.422-.355-.356-.3-.315-.148-.611-.126-.337-.016-.482-.114-.18-.072-.274-.1-.252-.189-.158-.032-.23-.136-.12-.157-.038-.051-.1-.11-.016-.111.019-.173-.025h-.145l-.072-.1-.126-.151-.224-.016-.161-.041-.06-.133-.076-.076-.161-.179-.22-.18-.094-.145-.117-.126-.293-.2-.136-.18-.189-.211-.234-.177-.123-.085-.075-.167h-.388l-.22.01.022.139.123.155-.114.158.136.157.013.18.177.167.158.252.063.242-.085.347.085.2.032.252.022.189.23.189.1.176.18.148.189.306.063.176.063.274.158.148.136.252.013.294.155.126a.645.645,0,0,1,.066.179,1.187,1.187,0,0,0,.091.24l.063.23a.882.882,0,0,0,.139.192.459.459,0,0,1,.1.177l.148.157.2.136v.234l.23.6.086.356.274.3.063.359.17.334.271.212.107.3.23.274.022.316.3.1.252.274.252.315.274.338.293.337s.233.36.3.464.315.445.315.445a.932.932,0,0,1,.337.167,3.46,3.46,0,0,1,.252.315l.3.423.1.359-.013.331-.022.24.013.2-.125.28-.117.17a1.184,1.184,0,0,0-.094.24c0,.054-.148.17-.148.17a2.678,2.678,0,0,0-.072.388c.013.05.032.1.044.167s.051.1.127.14a1.76,1.76,0,0,1,.167.113l.22.158.278.139.293.148.274.212.4.189.316.189.337.4.4.4.3.4.145.548.255.653.063.441.082.445.126.088v.148l-.013.211-.041.19-.041.2-.072.284-.157.2-.013.243-.176.136-.148.167-.148.18-.24.136-.148.158-.167.085-.548-.013-.019-.3-.116-.116.1-.158.139-.221.05-.167.139-.126.072-.1.094-.234.1-.145.094-.18v-.262l.063-.179.126-.145.022-.148-.1-.211-.116-.1s-.136-.072-.127-.148.041-.1-.009-.144-.085-.076-.085-.076l-.114-.113a1.392,1.392,0,0,1-.139-.2s-.009-.083-.157-.136a.57.57,0,0,1-.2-.1l-.085-.136-.189-.158-.189-.107-.136-.136-.136-.1a1.065,1.065,0,0,0-.211-.012c-.063.012-.221.031-.221.031l-.176.013-.189.167-.17.167-.063.139-.176.072h-.6l-.148-.094a1.052,1.052,0,0,1-.041-.189v-.252l.1-.1.094-.1.032-.107-.072-.091-.076-.108v-.126l-.136-.072-.085-.116-.328-.319-.189-.274-.041-.318-.274-.249-.148-.278-.274-.293s-.148-.274-.3-.252a3.226,3.226,0,0,1-.334.018l-.359-.252-.243.063-.243.075a3.209,3.209,0,0,0-.419-.116c-.073,0-.347.01-.41.01a1.532,1.532,0,0,1-.262.022c-.211,0-.419-.01-.419-.01s0-.094-.17-.084a1.445,1.445,0,0,0-.41.022,1.021,1.021,0,0,1-.239.072c-.063.009-.22-.1-.22-.1h-.231a1.133,1.133,0,0,0-.158-.022c-.053,0-.138,0-.179-.054a1.588,1.588,0,0,0-.126-.126.221.221,0,0,0-.18-.06c-.094.019-.334.1-.334.1l-.139.252-.23.208-.158.18-.136.252-.107.189-.029.347-.063.315.019.208-.051.17-.2-.031-.2-.022-.041-.158-.148-.18-.063-.157-.072-.158.041-.22-.023-.315v-.24l-.136-.138-.22-.167.01-.157v-.23l-.145-.108-.117-.24v-.23l-.167-.1-.1-.17v-.23l-.021-.148-.1-.158-.05-.145-.243.05-.157.107s-.212.032-.221.083a1.665,1.665,0,0,1-.053.179l-.094.073-.167.211-.158.158-.167.158-.252.063-.221.176-.021.275-.1.053-.023.208.1.108.085.094.177.059h.161l.1.022a.613.613,0,0,1,.072.252l-.063.221-.113.032h-.17l-.051.116-.129.136-.24.243-.22.073-.24.072-.1.2-.2.114-.22.063-.2.2-.136.176-.22.1-.17.17-.144.136-.189.063-.18.233-.085.154-.208.139-.044.209-.136.17-.167.167-.212.032h-.293l-.274-.012-.189-.136-.082-.158-.17-.158-.167-.167-.126-.117-.261-.122-.127-.148h-.189l-.116.114-.145.044-.22-.01-.085.167-.18.01-.094.158h-.189l-.094-.158.013-.211.041-.177.1-.021.127.012.107-.139.094.108.167-.054.063-.116s0-.1.054-.117a1.761,1.761,0,0,1,.2-.01l.167-.114.107-.054.091-.126.17-.009.148-.139.2-.1.136-.135s.054-.14.076-.19a.654.654,0,0,1,.145-.158l.157-.17.094-.126.063-.3.1-.094.148-.136.032-.243.072-.251-.1-.158.041-.293v-.306l-.158-.2-.158-.167-.063-.211-.158-.054-.217.1-.243.066v.126l-.2.177-.075.157-.177.086-.148.166-.063.117-.167.144-.189.17-.17.063-.217.167-.139.145-.212.085-.167.1-.388.031-.116-.158-.2-.144-.189-.19-.189-.148-.189.032-.167-.167-.243-.125-.212.072-.2-.085-.293-.01-.086.147s-.1.01-.208.01-.464.009-.464.009l-.334.054-.129.126-.262.032-1.2.04h-.2l-.252.148-.116.145h-.428l-.148-.208-.041-.2-.139-.117v-.189l-.1-.158-.167.01-.189.085-.086.17-.114.164-.22.192-.17.313.073.17-.167.221.013.24.019.346-.063.233-.189.145-.334.243-.148.252-.974-.016-.338-.252-.315.148h-.4l-.359.018-.085-.252-.281-.173-.22-.032-.41.1-.167.139-.136.2-.243-.085-.158-.24-.019-.18.051-.22-.01-.274-.1-.252-.158-.145s-.108-.054-.126-.107-.36-.145-.36-.145l-.125-.116-.231-.136-1.2-.346-.356-.022-.485-.085-.274-.167-.652-.126-.212-.211h-.589l-.441.063-1.179,1.2-.318.233-.379.145-.355.107-.593.5-.212.337-.315.36-.378.608-.378.108-.36-.022-.359.085-.334.293-.3.337.022.338-.022.4-.274.212-.316-.041h-.337l-.274.148-.359.019-.568.63-.23.255-.148.42-.234.359-.293.4s-.274.273-.274.377a3.073,3.073,0,0,1-.233.571,1.214,1.214,0,0,0-.041.356c.019.108.041.486.041.486l-.022.8.066.485.252.4.041.482.252.274-.041.486-.063.549-.3.378-.356.315-.252.252-.252.17-.337.293-.318.4.043.422a.968.968,0,0,1-.085.423c-.085.1-.04.377-.04.377l-.117.155-.031.23.013.233.01.23.116.1.122.189-.018.2s-.044.283-.044.337.035.324.035.324l-.148.145-.262.129-.161.155-.176.012-.252-.1-.167-.2-.17-.176a1.039,1.039,0,0,0-.262-.085.426.426,0,0,1-.167-.054l-.284-.209-.212-.157-.094-.189h-.365l-.275-.189-.305-.212-.46-.24-.189-.233-.473-.145-.22.082-.379.085-.271.262-.252.274-.284.145-.2.315-.334.211-.306.2s-.366.243-.378.305a2.475,2.475,0,0,1-.271.379l-.189.243-.243.24-.06.258-.1.136s-.113.079-.1.116.057.193.057.193l-.177.088-.041.157.028.12a.515.515,0,0,0,.069.1l.076.384.01.454v.64l-.054.532-.126.212-.211.262-.145.179-.01.221-.422.054-.64-.013-.136-.208a.9.9,0,0,0-.3-.075c-.094.013-.419.013-.419.013l-.6-.044-.366.022-.126-.252h-.306l.044-.189-.076-.274-.189-.136-.063-.189h-.441l-.429-.032-.369.032-.189.167-.158.234.013.189-.192.1-.1.079Zm28.37-7.868h-.262l-.23-.018v-.233l.189-.051.094-.233.2-.051.2-.021-.066-.2.094-.293.023-.242.126-.274.116-.136.284-.117.063-.189.419-.01.252-.094.271-.022.347.094h.262l.2.148.136.2.094.231.117.17.085.18.019.154.147.139a1.685,1.685,0,0,0,.221.041c.05,0,.262.032.262.032l.2.041.063.211.044.221-.2.041-.177-.145-.107-.072-.139.035-.079-.1-.158,0h-.208l-.3,0-.255.025-.18-.063-.2.069-.013.167-.273-.047-.171-.116-.251-.032-.1.063-.148.179-.212.01-.281.022h-.274l-.212.1-.032.189Zm20.047,5.419.274.012.122.158.158.135.013.167.158.136.262.063.054.157.009.18.18.126.24.117.107.221.2.218a.959.959,0,0,1,.053.265,1.845,1.845,0,0,1-.107.4l-.114.157-.18-.072-.116-.158s-.072-.2-.145-.2a.913.913,0,0,1-.242-.076l.009-.24-.126-.158-.2.01-.041-.158-.063-.126-.17.023-.167.053a.963.963,0,0,0-.082.177c-.013.053-.18.053-.18.053l-.009-.2.082-.18.053-.189-.135-.145.05-.3.01-.252-.072-.239.116-.139Zm-2.837,4.9.305.053.209-.161.148-.135.22-.041.347-.212.2-.148.293-.145.167-.158v-.315l-.388-.021-.337.167-.252.148-.366.136-.054.265-.284.1-.189.126-.022.338Zm7.6-.489.022.274.211.025.126-.094h.249l.18.085.211-.013.167-.031.116-.117.019-.167.075-.1.145-.135.126-.117.072-.126.148-.157.013-.148.1-.167-.054-.189-.274.022s-.063.073-.05.126a.863.863,0,0,1-.044.221l-.145.019-.158.044s-.116.041-.116.1v.212l-.072.135-.18.117v.123h-.252l-.22-.092-.114-.094-.126.117-.17.119Z" transform="translate(-396.418 -1457.339)" fill="#2480dc" fill-rule="evenodd"/>
  </g>
  <g id="Group_59" data-name="Group 59" transform="translate(74.849 12.32)">
    <path id="Path_132" data-name="Path 132" d="M477.993,1457.214l-.167-.17-.243-.041-.095-.117-.113-.366-.18-.022-.009-.274.019-.441-.158-.145-.167-.22-.2-.095-.022-.987.189-.044.1-.186-.019-.18-.2-.117-.208-.189-.18-.135-.18-.347-.135-.315-.252-.463-.179-.23-.158-.428-.176-.243.022-.334v-.485l.05-.208.211-.032v-.369l.051-.306.158-.158.085-.2v-.337l.013-.271.177-.189.095-.262.242-.189.208-.126h.252l.189-.044.148-.239.2.041.378.009.306-.032h.365l.3.022.262.031.167.158.306.022.23.032.179.041.082.179.2.032.208.009h.233l.158.063.031.189.208.063.085.135.041.148.126.009.148.1.221.148.177.032.17.041.177.192.274.167.145.126.211.208.167.2.271.3.319.148.126.315.3.359.082.5.148.423.252.356.233.274.841,1.034.174.224.009.4.044.356.019.284.155.883.359.148.23.293.318.3.378.485.293.1.252.126.274.233.359.252.167.275.192.315.1.274.126.338.233.315.337.252.252.274.356.3.211.337.252.274.189.23.17.337.085.378.23.3.36.4.356.252.17.423.356.5.2.142.095.243.063.252.05.306.17.3.032.356.019.3-.063.281-.1.464-.148.189-.145.211-.221.2-.419.135-.356.013-.076.24-.5.022-.221.009h-.315l-.252.031-.073.126-.262-.051h-.274l-.167-.138-.136-.145-.17-.107-.019-.284-.076-.189-.126-.167-.113-.189-.076-.2-.375-.369-.567-.567-.441-.381-.422-.337-.293-.1-.886-.23-.211-.315-.337-.359-.841-.171-.233-.337-.356-.315-.3-.275-.1-.356-.211-.337-.17-.148-1.053-.148-.378-.211-.252-.252-.189-.252-.233-.337-.019-.359.019-.882-.23-.126v-.76l-.107-.4-.23-.148-.022-.378-.23-.082-.148-.192-.252-.167-.422-.148-.274.126-.353.047-.274.063-.24.148v.189l-.179.085Z" transform="translate(-475.264 -1447.711)" fill="#2480dc" fill-rule="evenodd"/>
  </g>
  <g id="Group_60" data-name="Group 60" transform="translate(79.978 10.88)">
    <path id="Path_133" data-name="Path 133" d="M481.5,1446.189l.072.22-.009.284.189.189.148.177.189.107.167.126,0,.3.243.094.2,0,.18.085.158.167.167.158.221.054.22.063.221-.054.136-.176.126-.189-.032-.243.107-.24-.117-.139-.158-.158.051-.208.107-.211-.032-.126-.177-.158h-.129l-.145-.189-.1-.116-.054-.23-.22.044h-.5l-.23-.022-.243-.044-.179.012-.262.041-.261-.022-.054.4Z" transform="translate(-481.502 -1445.758)" fill="#2480dc" fill-rule="evenodd"/>
  </g>
  <g id="Group_61" data-name="Group 61" transform="translate(62.18 4.967)">
    <path id="Path_134" data-name="Path 134" d="M455.528,1439.59l.338.252.4.4.464.274.63.255h.589l.464-.022h.652l.381-.252h.59l.8.041.656-.085.441.085.5-.063.508-.148.378-.337.548-.338.063-.5-.3-.359-.4-.378-.293-.17s-.338-.208-.445-.252-.442-.23-.442-.23l-.378-.022-.652.085-.548.1-1.031-.019-.255.271-.338.255-.693.145-.59.234-.7.126-.441.063h-.445l-.464.589Z" transform="translate(-455.528 -1437.737)" fill="#2480dc" fill-rule="evenodd"/>
  </g>
</svg>
