<svg xmlns="http://www.w3.org/2000/svg" width="17.028" height="30" viewBox="0 0 17.028 30">
  <path id="fb" d="M160.676,1177.373h-4.8a1.457,1.457,0,0,1-1.455-1.455v-10.836h-2.8a1.457,1.457,0,0,1-1.455-1.455v-4.643a1.457,1.457,0,0,1,1.455-1.456h2.8V1155.2a7.919,7.919,0,0,1,2.093-5.672,7.542,7.542,0,0,1,5.559-2.157l3.664.006a1.457,1.457,0,0,1,1.453,1.455v4.311a1.457,1.457,0,0,1-1.455,1.455h-2.467c-.752,0-.944.151-.985.2-.067.077-.148.293-.148.892v1.837h3.415a1.484,1.484,0,0,1,.72.182,1.462,1.462,0,0,1,.748,1.273l0,4.644a1.457,1.457,0,0,1-1.455,1.455h-3.426v10.836A1.457,1.457,0,0,1,160.676,1177.373Zm-4.5-1.759h4.2v-11.32a.973.973,0,0,1,.971-.971h3.91l0-4.036h-3.912a.972.972,0,0,1-.971-.971v-2.625a2.475,2.475,0,0,1,2.891-2.848h2.164v-3.7l-3.359-.005c-3.634,0-5.893,2.326-5.893,6.071v3.113a.973.973,0,0,1-.971.971h-3.287v4.036H155.2a.972.972,0,0,1,.971.971Zm9.554-26.476h0Z" transform="translate(-150.158 -1147.373)" fill="#023839"/>
</svg>
