<svg xmlns="http://www.w3.org/2000/svg" width="30" height="30" viewBox="0 0 30 30">
  <path id="insta" d="M8.121,30A8.13,8.13,0,0,1,0,21.879V8.12A8.13,8.13,0,0,1,8.121,0H21.879A8.13,8.13,0,0,1,30,8.12V21.879A8.13,8.13,0,0,1,21.88,30ZM1.759,8.12V21.879a6.37,6.37,0,0,0,6.362,6.362H21.879a6.369,6.369,0,0,0,6.362-6.362V8.12A6.369,6.369,0,0,0,21.88,1.759H8.121A6.369,6.369,0,0,0,1.759,8.12ZM6.8,15A8.2,8.2,0,1,1,15,23.2,8.212,8.212,0,0,1,6.8,15Zm1.759,0A6.444,6.444,0,1,0,15,8.556,6.452,6.452,0,0,0,8.556,15ZM20.975,6.308A2.424,2.424,0,1,1,23.4,8.732,2.426,2.426,0,0,1,20.975,6.308Zm1.759,0a.666.666,0,1,0,.665-.665A.666.666,0,0,0,22.734,6.308Z" fill="#023839"/>
</svg>
