<svg xmlns="http://www.w3.org/2000/svg" width="29.99" height="30" viewBox="0 0 29.99 30">
  <path id="linkedin" d="M22.261,19.921c0-2.789-.3-4.035-2.094-4.035-1.619,0-2.557.636-2.557,3.878C17.288,27.614,18.363,30,16.673,30H10.848c-1.78,0-.559-2.005-.937-19.713a.937.937,0,0,1,.937-.937,33.2,33.2,0,0,0,3.521,0c2.073-.087,3.01-.175,3.01,1.083a7.433,7.433,0,0,1,4.66-1.558c10.225,0,7.485,10.363,7.923,20.184a.937.937,0,0,1-.937.937L23.2,30C21.514,30,22.583,27.629,22.261,19.921Zm1.875,8.2h3.95V18.746c0-5.829-1.638-8-6.048-8a5.209,5.209,0,0,0-4.687,2.531,1,1,0,0,1-1.849-.438V11.222H11.786v16.9h3.95c0-7.94-1.182-14.112,4.432-14.112C25.082,14.011,24.136,19.194,24.136,28.125ZM1.364,30a.938.938,0,0,1-.937-.938C.8,11.33-.41,9.349,1.364,9.349a34.238,34.238,0,0,0,3.626.008c2.065-.083,3.143-.167,3.143.929C7.755,28.019,8.97,30,7.2,30ZM2.3,28.125H6.258v-16.9H2.3ZM4.276,0c5.727,0,5.681,8.662,0,8.662S-1.443,0,4.276,0Zm0,6.786c3.2,0,3.247-4.911,0-4.911S1.066,6.786,4.276,6.786Z" fill="#023839"/>
</svg>
