<?xml version="1.0" standalone="no"?>
<!DOCTYPE svg PUBLIC "-//W3C//DTD SVG 20010904//EN"
 "http://www.w3.org/TR/2001/REC-SVG-20010904/DTD/svg10.dtd">
<svg version="1.0" xmlns="http://www.w3.org/2000/svg"
 width="16.000000pt" height="16.000000pt" viewBox="0 0 16.000000 16.000000"
 preserveAspectRatio="xMidYMid meet">
<metadata>
Created by potrace 1.11, written by Peter Selinger 2001-2013
</metadata>
<g transform="translate(0.000000,16.000000) scale(0.003125,-0.003125)"
fill="#000000" stroke="none">
<path d="M2535 5091 c-17 -10 -109 -63 -205 -119 -96 -55 -346 -199 -555 -319
-209 -121 -613 -354 -898 -518 l-517 -298 0 -1277 0 -1277 517 -298 c285 -164
689 -397 898 -518 209 -120 459 -264 555 -320 96 -55 189 -108 206 -118 l31
-19 539 311 c296 171 703 406 904 522 201 115 439 253 530 305 91 52 182 106
203 119 l37 23 -2 1273 -3 1272 -165 96 c-228 133 -2000 1154 -2025 1167 -16
8 -28 7 -50 -7z m173 -315 c70 -41 375 -217 677 -391 303 -174 691 -398 863
-497 l312 -181 0 -1147 0 -1147 -312 -181 c-172 -99 -560 -323 -863 -497 -302
-174 -607 -350 -677 -391 -70 -41 -133 -74 -141 -74 -7 0 -89 44 -183 98 -93
54 -425 246 -739 427 -314 181 -680 392 -815 470 l-245 141 0 1154 0 1154 245
141 c135 78 501 289 815 470 314 181 646 373 739 427 94 54 176 98 183 98 8 0
71 -33 141 -74z"/>
<path d="M2043 3779 c-195 -19 -374 -94 -461 -194 -50 -56 -99 -155 -123 -245
-32 -119 -32 -356 0 -475 63 -236 208 -389 441 -463 59 -19 107 -29 222 -47
l37 -6 3 -514 c3 -503 3 -514 24 -542 38 -51 65 -58 229 -58 164 0 191 7 229
58 21 28 21 39 24 559 l3 530 387 -3 c433 -4 438 -4 469 59 25 52 25 232 -1
280 -34 65 -20 64 -715 60 -575 -3 -632 -2 -696 15 -117 30 -186 82 -223 167
-27 62 -36 137 -23 206 16 83 50 130 119 162 l57 27 740 5 c674 5 743 7 771
22 48 27 64 78 64 211 0 134 -15 169 -77 186 -45 13 -1371 13 -1500 0z"/>
</g>
</svg>
