<svg xmlns="http://www.w3.org/2000/svg" width="26.997" height="30" viewBox="0 0 26.997 30">
  <path id="calendar" d="M47.037,14.734h2.093a.859.859,0,0,0,.858-.858V11.783a.859.859,0,0,0-.858-.858H47.037a.859.859,0,0,0-.858.858v2.093A.859.859,0,0,0,47.037,14.734Zm.021-2.93h2.051v2.051H47.057Zm-.021,8.5h2.093a.859.859,0,0,0,.858-.858V17.349a.859.859,0,0,0-.858-.858H47.037a.859.859,0,0,0-.858.858v2.093A.859.859,0,0,0,47.037,20.3Zm.021-2.93h2.051v2.051H47.057Zm-5.993-2.637h2.093a.859.859,0,0,0,.858-.858V11.783a.859.859,0,0,0-.858-.858H41.065a.859.859,0,0,0-.858.858v2.093A.859.859,0,0,0,41.065,14.734Zm.021-2.93h2.051v2.051H41.086ZM31.214,21.8H29.122a.859.859,0,0,0-.858.858v2.093a.859.859,0,0,0,.858.858h2.093a.859.859,0,0,0,.858-.858V22.655A.859.859,0,0,0,31.214,21.8Zm-.021,2.93H29.143V22.676h2.051Zm.021-13.8H29.122a.859.859,0,0,0-.858.858v2.093a.859.859,0,0,0,.858.858h2.093a.859.859,0,0,0,.858-.858V11.783A.859.859,0,0,0,31.214,10.925Zm-.021,2.93H29.143V11.8h2.051Zm9.872,6.315h2.093a.859.859,0,0,0,.858-.858V17.219a.859.859,0,0,0-.858-.858H41.065a.859.859,0,0,0-.858.858v2.093A.859.859,0,0,0,41.065,20.17Zm.021-2.93h2.051v2.051H41.086ZM50.424,2.008H48.545V1.336A1.338,1.338,0,0,0,47.208,0h-.2A1.338,1.338,0,0,0,45.67,1.336v.672H32.58V1.336A1.338,1.338,0,0,0,31.244,0h-.2a1.338,1.338,0,0,0-1.336,1.336v.672H27.827a2.2,2.2,0,0,0-2.2,2.2V27.8a2.2,2.2,0,0,0,2.2,2.2h22.6a2.2,2.2,0,0,0,2.2-2.2V4.208a2.2,2.2,0,0,0-2.2-2.2Zm-3.874-.672a.458.458,0,0,1,.457-.457h.2a.458.458,0,0,1,.457.457v.672H46.549Zm-15.964,0a.458.458,0,0,1,.457-.457h.2a.458.458,0,0,1,.457.457v.672H30.585V1.336ZM51.745,27.8a1.32,1.32,0,0,1-1.318,1.318h-22.6A1.32,1.32,0,0,1,26.506,27.8v0a2.189,2.189,0,0,0,1.321.442H45.645A2.186,2.186,0,0,0,47.2,27.6l4.545-4.545Zm-4.993-1a1.879,1.879,0,0,0,.053-.443V23.427a1,1,0,0,1,1-1h2.933a1.88,1.88,0,0,0,.443-.053ZM51.745,8.288H33.02a.439.439,0,0,0,0,.879H51.745V20.541a1,1,0,0,1-1,1H47.808a1.884,1.884,0,0,0-1.882,1.882V26.36a1,1,0,0,1-1,1h-17.1a1.323,1.323,0,0,1-1.321-1.321V9.167h4.756a.439.439,0,1,0,0-.879H26.506V4.208a1.323,1.323,0,0,1,1.321-1.321h1.879V4.179a1.338,1.338,0,0,0,1.336,1.336.439.439,0,1,0,0-.879.458.458,0,0,1-.457-.457V2.887H45.67V4.179a1.338,1.338,0,0,0,1.336,1.336.439.439,0,0,0,0-.879.458.458,0,0,1-.457-.457V2.887h3.874a1.323,1.323,0,0,1,1.321,1.321ZM31.214,16.361H29.122a.859.859,0,0,0-.858.858v2.093a.859.859,0,0,0,.858.858h2.093a.859.859,0,0,0,.858-.858V17.219A.859.859,0,0,0,31.214,16.361Zm-.021,2.93H29.143V17.24h2.051Zm3.9-4.557h2.093a.859.859,0,0,0,.858-.858V11.783a.859.859,0,0,0-.858-.858H35.093a.859.859,0,0,0-.858.858v2.093A.859.859,0,0,0,35.093,14.734Zm.021-2.93h2.051v2.051H35.114Zm5.971,12.923a.439.439,0,0,0-.878.021.859.859,0,0,0,.858.858h2.093a.859.859,0,0,0,.858-.858V22.655a.859.859,0,0,0-.858-.858H41.065a.859.859,0,0,0-.858.858v.6a.439.439,0,1,0,.879,0v-.583h2.051v2.051ZM35.093,20.17h2.093a.859.859,0,0,0,.858-.858V17.219a.859.859,0,0,0-.858-.858H35.093a.859.859,0,0,0-.858.858v2.093A.859.859,0,0,0,35.093,20.17Zm.021-2.93h2.051v2.051H35.114Zm-.021,8.366h2.093a.859.859,0,0,0,.858-.858V22.655a.859.859,0,0,0-.858-.858H35.093a.859.859,0,0,0-.858.858v2.093A.859.859,0,0,0,35.093,25.605Zm.021-2.93h2.051v2.051H35.114Z" transform="translate(-25.627)" fill="#232323"/>
</svg>
