<?xml version="1.0"?>
<svg width="504" height="503" xmlns="http://www.w3.org/2000/svg" xmlns:svg="http://www.w3.org/2000/svg" version="1.1">

 <g class="layer">
  <g id="svg_21">
   <g id="svg_68">
    <path d="m211.62,71.97l80.74,0c9.23,0 17.63,-7.58 17.63,-16.8s-8.4,-16.8 -17.63,-16.8l-82.55,0c-9.17,0 -17.05,8.56 -16.56,17.71c0.49,9.14 9.24,15.89 18.37,15.89z" id="svg_22"/>
    <path d="m352.8,116.26c9.64,0 16.79,-7.81 16.79,-17.45l0,-81.53c0,-9.64 -7.15,-17.45 -16.78,-17.45c-9.65,0 -16.82,7.82 -16.82,17.45l0,81.52c0,9.65 7.17,17.46 16.81,17.46z" id="svg_23"/>
    <path d="m437.88,38.37l-23.08,0c-9.2,0 -17.62,7.58 -17.62,16.8s8.42,16.8 17.62,16.8l23.08,0c16.48,0 26.91,13.49 26.91,29.98l0,37.22l-425.6,0l0,-37.22c0,-16.49 10.44,-29.98 26.91,-29.98l23.09,0c9.2,0 17.61,-7.58 17.61,-16.8s-8.42,-16.8 -17.61,-16.8l-23.09,0c-35.22,0 -66.11,28.33 -66.11,63.58l0,337.75c0,35.22 30.89,63.47 66.11,63.47l371.78,0c35.23,0 66.12,-28.25 66.12,-63.48l0,-337.74c0,-35.24 -30.89,-63.57 -66.12,-63.57l0,-0.01zm26.91,401.32c0,16.47 -10.43,29.88 -26.91,29.88l-371.78,0c-16.48,0 -26.91,-13.41 -26.91,-29.88l0,-266.92l425.6,0l0,266.92z" id="svg_24"/>
    <path d="m137.32,351.97l69.79,57.97c6.74,5.75 17.37,5.15 23.46,-0.91l138.45,-139.56c5.19,-5.06 7.18,-13.64 4.04,-20.17c-2.75,-5.72 -9.07,-9.55 -14.67,-9.81l0,-0.01c0,-0.05 -2.22,0.08 -3.14,0.18c-3.91,0.52 -7.92,2.41 -10.65,5.28l-127.35,128.3l-57.67,-47.98c-6.84,-6.94 -19.81,-6.4 -26.05,1.09c-6.2,7.49 -4.29,20.22 3.78,25.62l0.01,0z" id="svg_25"/>
    <path d="m151.19,116.26c9.64,0 16.8,-7.81 16.8,-17.45l0,-81.53c0,-9.64 -7.16,-17.45 -16.82,-17.45c-9.6,0 -16.78,7.82 -16.78,17.45l0,81.52c0,9.65 7.18,17.46 16.8,17.46z" id="svg_26"/>
   </g>
  </g>
 </g>
</svg>