<svg xmlns="http://www.w3.org/2000/svg" width="31" height="26.758" viewBox="0 0 31 26.758">
  <path id="children" d="M-152-1520.173a.439.439,0,0,1,.278-.556l1.457-.486v-6.685h-1.318a.439.439,0,0,1-.44-.439v-.312a3.953,3.953,0,0,1,.879-2.485v-1.775a5.4,5.4,0,0,1-3.34-1.562.439.439,0,0,1,0-.621.44.44,0,0,1,.622,0,4.519,4.519,0,0,0,2.719,1.3v-1.575a1.613,1.613,0,0,1,1.611-1.611h2.93a1.613,1.613,0,0,1,1.611,1.611v4.234a3.953,3.953,0,0,1,.879,2.485v.312a.439.439,0,0,1-.44.439h-1.318v2.642l3.567,1.189a.44.44,0,0,1,.3.417v1.758a.439.439,0,0,1-.439.439.439.439,0,0,1-.44-.439v-1.441l-3.567-1.189a.439.439,0,0,1-.3-.417v-2.959h-2.636v7a.44.44,0,0,1-.3.417l-1.758.586a.445.445,0,0,1-.139.023A.439.439,0,0,1-152-1520.173Zm.859-8.605h6.147a3.074,3.074,0,0,0-.644-1.758h-4.859A3.074,3.074,0,0,0-151.138-1528.779Zm4.322-6.317a.44.44,0,0,1,0,.621,5.4,5.4,0,0,1-3.446,1.57v1.489h4.395v-3.955a.733.733,0,0,0-.732-.733h-2.93a.733.733,0,0,0-.732.733v1.586a4.518,4.518,0,0,0,2.824-1.311.438.438,0,0,1,.311-.128A.439.439,0,0,1-146.816-1535.1Zm-18.072,14.922a.439.439,0,0,1,.278-.556l1.457-.486v-7.611a3.067,3.067,0,0,1-.879-2.15v-.6a.439.439,0,0,1,.44-.439.439.439,0,0,1,.439.439v.156h4.395v-3.955a.733.733,0,0,0-.732-.733h-2.93a.734.734,0,0,0-.733.733v1.581a4.522,4.522,0,0,0,2.766-1.306.44.44,0,0,1,.621,0,.439.439,0,0,1,0,.621,5.4,5.4,0,0,1-3.832,1.585,5.4,5.4,0,0,1-3.832-1.585.439.439,0,0,1,0-.621.44.44,0,0,1,.622,0,4.518,4.518,0,0,0,2.778,1.307v-1.582a1.613,1.613,0,0,1,1.611-1.611h2.93a1.613,1.613,0,0,1,1.611,1.611v4.395a3.065,3.065,0,0,1-.879,2.15v3.568l3.567,1.189a.439.439,0,0,1,.3.417v1.758a.439.439,0,0,1-.44.439.44.44,0,0,1-.44-.439v-1.441l-3.567-1.189a.44.44,0,0,1-.3-.417v-3.257a3.057,3.057,0,0,1-1.319.3,3.055,3.055,0,0,1-1.318-.3v7.3a.439.439,0,0,1-.3.417l-1.758.586a.43.43,0,0,1-.139.023A.44.44,0,0,1-164.887-1520.173Zm3.933-8.605a2.2,2.2,0,0,0,2.153-1.758h-4.307A2.2,2.2,0,0,0-160.955-1528.779Zm-11.045,5.83a3.08,3.08,0,0,1,3.076-3.076,3.08,3.08,0,0,1,3.076,3.076,3.08,3.08,0,0,1-3.076,3.076A3.08,3.08,0,0,1-172-1522.949Zm.879,0a2.2,2.2,0,0,0,2.2,2.2,2.2,2.2,0,0,0,2.2-2.2,2.2,2.2,0,0,0-2.2-2.2A2.2,2.2,0,0,0-171.121-1522.949Zm19.981-17.989a3.056,3.056,0,0,1,.409-1.529,1.616,1.616,0,0,1-.875-.605,1.613,1.613,0,0,1,.356-2.251,1.6,1.6,0,0,1,.946-.308,1.617,1.617,0,0,1,1.3.664,1.6,1.6,0,0,1,.305,1.017,3.072,3.072,0,0,1,.63-.065,3.064,3.064,0,0,1,.63.065,1.6,1.6,0,0,1,.306-1.017,1.616,1.616,0,0,1,1.3-.664,1.6,1.6,0,0,1,.946.308,1.613,1.613,0,0,1,.357,2.251,1.616,1.616,0,0,1-.875.605,3.056,3.056,0,0,1,.409,1.529,3.08,3.08,0,0,1-3.076,3.076A3.08,3.08,0,0,1-151.141-1540.938Zm.879,0a2.2,2.2,0,0,0,2.2,2.2,2.2,2.2,0,0,0,2.2-2.2,2.2,2.2,0,0,0-2.2-2.2A2.2,2.2,0,0,0-150.261-1540.938Zm3.843-3.512a.734.734,0,0,0,.162,1.023.73.73,0,0,0,.43.14.736.736,0,0,0,.593-.3.734.734,0,0,0-.162-1.023.729.729,0,0,0-.43-.14A.737.737,0,0,0-146.418-1544.449Zm-4.315-.162a.733.733,0,0,0-.162,1.023.726.726,0,0,0,.593.3.73.73,0,0,0,.43-.14.734.734,0,0,0,.162-1.023.737.737,0,0,0-.594-.3A.728.728,0,0,0-150.733-1544.611Zm-13.3,3.674a3.079,3.079,0,0,1,3.076-3.076,3.079,3.079,0,0,1,3.076,3.076,3.079,3.079,0,0,1-3.076,3.076A3.079,3.079,0,0,1-164.031-1540.938Zm.879,0a2.2,2.2,0,0,0,2.2,2.2,2.2,2.2,0,0,0,2.2-2.2,2.2,2.2,0,0,0-2.2-2.2A2.2,2.2,0,0,0-163.152-1540.938Z" transform="translate(172.5 1546.13)" fill="#232323" stroke="rgba(0,0,0,0)" stroke-miterlimit="10" stroke-width="1"/>
</svg>
