<?xml version="1.0"?>
<svg width="358" height="358" xmlns="http://www.w3.org/2000/svg" xmlns:svg="http://www.w3.org/2000/svg" version="1.1">
 <defs>
  <filter id="svg_25_blur">
   <feGaussianBlur in="SourceGraphic" stdDeviation="0.5"/>
  </filter>
 </defs>
 <g class="layer">
  <g id="svg_24">
   <path d="m357.86,344.29l-33.6,-134.4c-1.24,-4.99 -5.72,-8.49 -10.86,-8.49l-25.65,0c-3.91,7.63 -8.14,15.11 -12.61,22.4l29.51,0l13.25,53.01l-53.93,-35.96c-4.35,6.26 -8.83,12.3 -13.39,18l29.98,19.98l-104.42,56.97l-4.95,0l-125.02,-83.34l7.17,-28.66l29.51,0c-4.46,-7.28 -8.69,-14.77 -12.61,-22.39l-25.64,-0.01c-5.14,0 -9.62,3.5 -10.87,8.49l-33.6,134.4c-0.83,3.34 -0.08,6.88 2.04,9.61c2.12,2.72 5.38,4.3 8.83,4.3l336,0c3.44,0 6.7,-1.59 8.82,-4.31c2.12,-2.72 2.88,-6.26 2.04,-9.6zm-332.52,-8.48l15.06,-60.27l90.4,60.27l-105.46,0zm197.58,0l78.7,-42.93l24.36,16.24l6.67,26.69l-109.73,0zm-43.93,-44.81c-21.86,0 -112,-97.89 -112,-179.2c0,-61.75 50.25,-112 112,-112s112,50.25 112,112c0,81.31 -90.13,179.2 -112,179.2zm0,-268.8c-49.4,0 -89.6,40.2 -89.6,89.61c0,67.54 71.73,143.32 89.6,155.71c17.88,-12.4 89.61,-88.17 89.61,-155.71c0,-49.41 -40.2,-89.61 -89.61,-89.61zm0,145.6c-30.87,0 -56,-25.12 -56,-56c0,-30.87 25.13,-56 56,-56s56,25.13 56,56c0,30.88 -25.12,56 -56,56zm0,-89.6c-18.53,0 -33.6,15.07 -33.6,33.6s15.07,33.61 33.6,33.61s33.61,-15.07 33.61,-33.61s-15.07,-33.6 -33.61,-33.6z" filter="url(#svg_25_blur)" id="svg_25"/>
  </g>
 </g>
</svg>