<svg xmlns="http://www.w3.org/2000/svg" width="18" height="14.401" viewBox="0 0 18 14.401">
  <path id="hands-heart" d="M8.4,6.946a.835.835,0,0,0,1.192,0L12.37,4.078A2.453,2.453,0,0,0,12.2.526,2.37,2.37,0,0,0,9,.745,2.367,2.367,0,0,0,5.8.526,2.453,2.453,0,0,0,5.63,4.078ZM6.651,1.561a1.031,1.031,0,0,1,1.386.132L9,2.686l.959-1a1.031,1.031,0,0,1,1.386-.132A1.09,1.09,0,0,1,11.42,3.13L9,5.635,6.577,3.13a1.087,1.087,0,0,1,.073-1.569ZM16.11,2.7a2.026,2.026,0,0,0-2.162,2.019s0,1.1-.006,2.137a2.023,2.023,0,0,0-2.722.45L9.2,9.932a2.854,2.854,0,0,0-.2.315,3.335,3.335,0,0,0-.2-.315L6.777,7.309a2.023,2.023,0,0,0-2.722-.45c0-1.043-.006-2.137-.006-2.137A2.026,2.026,0,0,0,1.887,2.7,2.069,2.069,0,0,0,0,4.792v5.385a3.17,3.17,0,0,0,.689,1.968L2.34,14.226a.453.453,0,0,0,.352.172H3.15a.451.451,0,0,0,.45-.45.936.936,0,0,0-.2-.579L1.743,11.3a1.79,1.79,0,0,1-.394-1.125V4.747a.687.687,0,0,1,.54-.686.676.676,0,0,1,.81.661s.006,2.84.008,3.729a.884.884,0,0,0,.219.579l2.151,2.6a.62.62,0,0,0,.953-.793L4.64,8.957a.676.676,0,1,1,1.071-.824l2.016,2.621a1.8,1.8,0,0,1,.374,1.1v2.095a.451.451,0,0,0,.45.45h.9a.451.451,0,0,0,.45-.45V11.853a1.8,1.8,0,0,1,.374-1.1l2.016-2.621a.676.676,0,0,1,1.071.824l-1.392,1.884a.62.62,0,0,0,.953.793l2.151-2.6a.9.9,0,0,0,.219-.579c0-.891,0-3.732,0-3.732a.674.674,0,0,1,.81-.661.69.69,0,0,1,.54.686v5.43a1.788,1.788,0,0,1-.394,1.122L14.6,13.363a.925.925,0,0,0-.2.579.451.451,0,0,0,.45.45h.458a.441.441,0,0,0,.352-.172l1.651-2.081A3.164,3.164,0,0,0,18,10.171V4.792A2.073,2.073,0,0,0,16.11,2.7Z" transform="translate(0 0.003)" fill="#232323"/>
</svg>
