<?xml version="1.0"?>
<svg width="358" height="358" xmlns="http://www.w3.org/2000/svg" xmlns:svg="http://www.w3.org/2000/svg" version="1.1">

 <g class="layer">
  <g id="svg_24">
   <path d="m179,95.2c-37.06,0 -67.2,30.15 -67.2,67.2c0,49.61 57.75,96.38 60.21,98.35c2.04,1.63 4.51,2.45 6.99,2.45s4.95,-0.82 7,-2.45c2.45,-1.97 60.2,-48.74 60.2,-98.35c0,-37.06 -30.15,-67.2 -67.2,-67.2zm0,141.93c-14.14,-13.02 -44.8,-44.7 -44.8,-74.73c0,-24.7 20.1,-44.8 44.8,-44.8s44.8,20.1 44.8,44.8c0,30.03 -30.66,61.71 -44.8,74.73zm22.4,-74.73c0,12.36 -10.05,22.4 -22.4,22.4c-12.36,0 -22.4,-10.05 -22.4,-22.4c0,-12.35 10.05,-22.4 22.4,-22.4c12.36,0 22.4,10.05 22.4,22.4zm145.6,5.6l-22.97,0c-5.47,-71.35 -62.48,-128.36 -133.84,-133.84l0,-22.96c0,-6.18 -5.02,-11.2 -11.2,-11.2c-6.18,0 -11.19,5.02 -11.19,11.2l0,22.96c-71.36,5.48 -128.36,62.49 -133.84,133.84l-22.97,0c-6.18,0 -11.2,5.02 -11.2,11.2c0,6.19 5.02,11.2 11.2,11.2l22.97,0c5.47,71.35 62.48,128.36 133.84,133.84l0,22.97c0,6.18 5.01,11.2 11.19,11.2c6.19,0 11.2,-5.02 11.2,-11.2l0,-22.97c71.36,-5.47 128.36,-62.48 133.84,-133.84l22.97,0c6.18,0 11.2,-5.02 11.2,-11.2c0,-6.18 -5.02,-11.2 -11.2,-11.2zm-168,134.4c-67.94,0 -123.2,-55.26 -123.2,-123.2s55.26,-123.2 123.2,-123.2s123.2,55.27 123.2,123.2s-55.27,123.2 -123.2,123.2z" id="svg_25"/>
  </g>
 </g>
</svg>