<?xml version="1.0"?>
<svg width="358" height="336" xmlns="http://www.w3.org/2000/svg" xmlns:svg="http://www.w3.org/2000/svg" version="1.1">

 <g class="layer">
  <g id="svg_24">
   <path d="m354.37,47.4c-2.55,-2.13 -5.93,-3.04 -9.18,-2.43c0,0 -12.84,2.34 -31.6,5.85l0,-39.62c0,-3.25 -1.41,-6.34 -3.86,-8.46c-2.45,-2.13 -5.69,-3.09 -8.92,-2.63c-3.18,0.45 -74.07,11.11 -121.61,61.26c-47.56,-50.15 -118.43,-60.8 -121.61,-61.26c-3.23,-0.46 -6.47,0.51 -8.93,2.63c-2.45,2.12 -3.86,5.21 -3.86,8.46l0,39.62c-18.76,-3.51 -31.6,-5.85 -31.6,-5.85c-3.26,-0.58 -6.63,0.31 -9.18,2.43c-2.55,2.13 -4.02,5.28 -4.02,8.6l0,235.2c0,5.75 4.36,10.57 10.09,11.14c1.1,0.12 111.08,11.31 164.95,32.86c0.15,0.06 0.31,0.04 0.47,0.09c1.17,0.42 2.4,0.71 3.69,0.71s2.51,-0.29 3.69,-0.71c0.15,-0.05 0.32,-0.03 0.47,-0.09c53.87,-21.55 163.85,-32.75 164.95,-32.85c5.73,-0.58 10.08,-5.4 10.08,-11.15l0,-235.2c0,-3.32 -1.47,-6.47 -4.02,-8.6zm-63.17,-22.44l0,212.97c-19.4,5.9 -67.42,22.99 -100.8,55.38l0,-210.59c31.05,-36.66 78.25,-52.23 100.8,-57.76zm-224,0c22.54,5.54 69.74,21.1 100.8,57.77l0,210.58c-33.39,-32.39 -81.4,-49.48 -100.8,-55.38l0,-212.97zm-44.8,44.48c5.94,1.1 13.62,2.53 22.39,4.17l0.01,172.79c0,5.14 3.5,9.61 8.48,10.86c0.67,0.17 53.68,13.9 91.09,44.96c-45.58,-11.56 -99.77,-18.52 -121.97,-21.07l0,-211.71zm313.6,211.71c-22.2,2.55 -76.4,9.51 -121.96,21.06c37.4,-31.05 90.41,-44.78 91.08,-44.95c4.98,-1.25 8.48,-5.73 8.48,-10.86l0,-172.78c8.78,-1.65 16.45,-3.08 22.39,-4.18l0.01,211.71z" id="svg_25"/>
  </g>
 </g>
</svg>