<?xml version="1.0"?>
<svg width="483" height="560" xmlns="http://www.w3.org/2000/svg" xmlns:svg="http://www.w3.org/2000/svg" version="1.1">

 <g class="layer">
  <g id="svg_21">
   <path d="m379.78,412.41c42.59,0 79.97,-24.57 99.12,-44.33c3.38,-3.49 4.91,-8.42 4.32,-13.24c-0.61,-4.84 -3.47,-9.2 -7.6,-11.79c-0.55,-0.32 -53.96,-34.94 -53.96,-160.75c0,-101.08 -77.29,-181.14 -175.97,-182.27l-4.01,-0.03l-3.97,0.02c-97.95,1.11 -176.94,82.94 -176.09,182.41c0,0.25 0.12,0.45 0.14,0.71c-0.25,125.08 -53.4,159.59 -53.75,159.8c-4.27,2.49 -7.18,6.83 -7.86,11.73c-0.67,4.91 0.95,9.86 4.4,13.41c19.15,19.76 56.51,44.33 99.1,44.33c18.12,0 37.18,-4.77 56.18,-15.95l0,27.12c-53.96,20.51 -98.8,61.73 -124.19,114.45c-2.27,4.78 -1.94,10.37 0.81,14.79c2.84,4.41 7.73,7.17 12.98,7.17l384.47,0c5.25,0 10.25,-2.76 12.99,-7.21c2.73,-4.55 3.06,-10.1 0.79,-14.88c-25.03,-52.01 -70.1,-92.88 -124.74,-113.52l0,-28.35c19.23,11.47 38.5,16.37 56.83,16.37l0.01,0.01zm-241.01,-140.89l-1.95,-54.06c26.7,-15.68 46.54,-39.18 56.63,-52.86c30.91,18.19 82.36,42.41 152.98,55.98l-1.76,49.64c-2.01,55.78 -47.27,99.69 -104.2,99.92c-55.06,-0.26 -99.76,-43.56 -101.7,-98.62zm303.97,85.3c-20.84,15.68 -63.77,38.76 -108.35,8.58c25.08,-23.66 41.17,-56.78 42.49,-94l1.64,-45.59c4.34,0.57 8.83,1.06 13.3,1.54c7.83,72.39 33.57,111.17 50.92,129.47zm-348.88,-175.27c-0.36,-81.46 64.18,-148.39 144.22,-149.31l3.59,0l3.63,0c80.82,0.94 144.12,66.83 144.12,150.05c0,4.26 0.14,8.3 0.24,12.39c-108.06,-12.84 -175.98,-53.72 -200.68,-71.23c-7.27,-5.14 -17.33,-3.4 -22.47,3.85c-4.16,5.86 -3.65,13.42 0.45,18.87c-12.02,16.11 -39.69,48.13 -73.3,53.87c0.22,-5.75 0.36,-11.64 0.36,-17.75c0,-0.26 -0.15,-0.49 -0.16,-0.74zm-53.09,175.23c16.91,-17.9 41.82,-55.16 50.27,-124.09c4.79,-0.4 9.45,-1.1 13.99,-2.18l1.5,42.18c1.32,36.77 17.19,69.53 42.1,92.94c-44.21,29.53 -87.02,6.65 -107.86,-8.85zm366.61,172.56l-331.79,0l0,-0.24c24.59,-37.78 61.48,-66.37 104.14,-80.11c6.39,-2.07 10.72,-7.99 10.72,-14.6l0,-42.12c15.77,6.41 33.05,10.02 51.3,10.13c17.79,-0.11 34.72,-3.62 50.23,-9.88l0,42.9c0,6.77 4.32,12.52 10.68,14.59c43.27,14.02 80.26,42.24 104.72,79.33z" id="svg_22"/>
  </g>
 </g>
</svg>